<?xml version="1.0" encoding="UTF-8"?><svg id="Layer_1" xmlns="http://www.w3.org/2000/svg" width="216.35" height="53.53" viewBox="0 0 216.35 53.53"><defs><style>.cls-1{fill:#c89923;stroke-width:0px;}</style></defs><path class="cls-1" d="m48.74,20.38c.86.76,1.71,1.55,2.6,2.28.53.43,1.16.73,1.69,1.16,1.04.83,1.09,1.65.19,2.63-.25.27-.56.48-.92.79.43.33.71.6,1.04.81.88.57,1.24,1.32,1,2.36-.18.78-.41,1.57.2,2.31.11.13.03.53-.1.72-.22.32-.51.61-.82.84-.56.4-.71.92-.61,1.56.04.28.08.57.09.85.08,1.75-.62,2.61-2.36,2.89-.46.07-.93.11-1.39.11-2.41-.02-4.83,0-7.24-.11-1.31-.06-2.25.66-3.25,1.25-.5.29-.87.8-1.32,1.19-.31.26-.41.49-.2.9.2.4.3.87.39,1.32.18.97-.07,1.42-1.01,1.77-.6.22-.94.45-.82,1.23.1.64-.09,1.36-.73,1.81-.17.12-.28.34-.41.51-.63.78-1.21,1.61-1.9,2.34-.82.87-1.89,1.16-3.1,1.17-.78,0-1.59.14-2.31.4-.56.21-.9,0-1.14-.33-.25-.36-.36-.83-.47-1.27-.08-.3,0-.64-.09-.93-.17-.49-.42-.96-.66-1.42-.16-.31-.36-.6-.55-.89-.25-.41-.61-.79-.72-1.23-.24-.97-.34-1.97-.51-2.95-.04-.23-.1-.47-.21-.67-.48-.89-1.04-1.74-1.46-2.65-.18-.39-.22-.91-.14-1.34.18-.97.28-2,1.06-2.77.41-.4.42-.89.15-1.39-.21-.4-.44-.76-.23-1.29.1-.25-.15-.66-.29-.97-.74-1.66-.74-1.64.71-2.72,2.85-2.11,5.05-4.81,6.72-7.88,1.37-2.52,2.51-5.17,3.68-7.79,1.34-3,3.23-5.48,6.5-6.52,1.09-.35,2.31-.3,3.48-.39.23-.02.52.14.72.29,2.29,1.69,3.91,3.86,4.72,6.58.16.53.14,1.13.11,1.69-.08,1.31.36,1.9,1.66,2.15.11.02.23,0,.33.05.15.07.27.17.41.26-.13.12-.24.3-.39.36-.65.26-1.31.48-1.97.72l-.09.23Zm-18.68,11.06c.01,1.58.38,3.09,1.05,4.51.4.86.99,1.52,2.07,1.47,1.09-.04,1.66-.74,2.04-1.63,1.09-2.57,1.18-5.2.27-7.84-.2-.59-.57-1.13-.89-1.68-.06-.11-.29-.12-.43-.18-.03.15-.11.32-.08.46.06.3.15.6.27.88.91,2.18,1.13,4.4.52,6.69-.23.85-.55,1.63-1.34,2.11-.17.11-.53.19-.62.1-.44-.41-1.03-.83-1.19-1.36-.36-1.16-.7-2.39-.68-3.58.03-1.45.45-2.89.67-4.33.03-.22-.09-.45-.13-.68-.17.17-.42.32-.51.53-.62,1.44-1.01,2.94-.99,4.53Z"/><path class="cls-1" d="m19.02.44c.08.31.22.63.22.94,0,.27-.09.6-.27.79-.4.41-.34.58.14.88.51.32,1,.36,1.57.29,3.37-.4,6.73-.79,10.13-.53,3.75.29,7.24,1.39,10.42,3.4.11.07.21.15.43.31-.27.07-.42.14-.57.14-4.51,0-7.29,2.52-9.13,6.29-1.25,2.56-2.26,5.24-3.6,7.76-1.91,3.6-4.4,6.78-7.86,9.11-.52.35-.88.38-1.27-.15-.39-.53-.84-1.01-1.23-1.54-.1-.13-.1-.37-.06-.55.15-.7.36-1.39.49-2.09.15-.86-.46-1.48-1.34-1.4-.22.02-.44.03-.66.09-.52.13-.84-.02-1.02-.54-.22-.61-.72-.95-1.35-.81-1.11.25-2.19.61-3.29.9-.24.07-.54.17-.75.09-.98-.38-1.95-.25-2.84.16-.7.33-1.19.09-1.71-.27-.71-.48-1.41-.97-2.1-1.49-.24-.18-.5-.43-.59-.69-.37-1.15-1.33-1.78-2.16-2.53-.17-.16-.32-.37-.39-.59-.12-.4-.18-.82-.26-1.24-.01-.08,0-.17.02-.25.19-.53.47-1.04.56-1.59.15-.91.16-1.83-.38-2.67-.12-.19-.09-.56.02-.78.48-.97.9-2.01,1.57-2.84.52-.65.83-1.49,1.83-1.85.81-.29,1.58-.92,1.43-2.16-.08-.71.34-1.56,1.17-1.9.65-.27,1.05-.67,1.22-1.35.17-.66.28-.51.89-.33.75.22,1.6.15,2.41.12.29-.01.62-.23.85-.44.77-.71,1.8-.53,2.68-.82.06-.02.13-.03.2-.03.91-.01,1.81-.02,2.72-.03.13,0,.29.03.39-.03.59-.39,1.1-.22,1.42.23Z"/><path class="cls-1" d="m78.18,20.5c0-2.85-1.69-4.27-5.08-4.27-1.66,0-3.04.43-4.17,1.29-.35.26-.62.57-.82.95-.2.37-.3.67-.3.89s.09.33.28.33.31-.09.38-.28c.28-.72.83-1.08,1.65-1.08.51,0,.95.19,1.31.56.36.37.54.89.54,1.54s-.23,1.18-.7,1.57c-.47.4-1.03.6-1.68.6s-1.23-.26-1.73-.77c-.5-.51-.75-1.17-.75-1.96,0-1.26.61-2.3,1.82-3.13,1.21-.83,2.96-1.24,5.25-1.24s4.18.41,5.67,1.23,2.24,2.04,2.24,3.66-.55,2.95-1.65,3.97-2.54,1.71-4.34,2.06v.21c2.03.05,3.67.53,4.94,1.44,1.26.91,1.89,2.26,1.89,4.06,0,4.55-3.24,6.83-9.73,6.83h-8.36v-.56h2.55v-12.92c1.38.4,3.02.59,4.92.59s3.35-.52,4.36-1.56c1-1.04,1.5-2.37,1.5-4.01Zm-.7,16.45c1.03-.96,1.54-2.47,1.54-4.55s-.58-3.51-1.75-4.3c-1.17-.79-2.98-1.19-5.42-1.19h-.81v11.48h1.65c2.17,0,3.77-.48,4.79-1.44Z"/><path class="cls-1" d="m92.35,38.42h2.31v.53h-7.74v-.53h2.31v-15.05h-2.49v-.52h.74c1.82,0,3.44-.15,4.86-.46v16.03Zm-3.13-19.41c-.38-.38-.58-.87-.58-1.45s.19-1.07.58-1.47c.38-.4.87-.59,1.45-.59s1.07.2,1.47.59c.4.4.6.89.6,1.47s-.2,1.07-.6,1.45-.89.58-1.47.58-1.07-.19-1.45-.58Z"/><path class="cls-1" d="m111.04,37.19c-1.35,1.63-3.24,2.45-5.67,2.45s-4.32-.82-5.67-2.45c-1.35-1.63-2.03-3.73-2.03-6.3s.68-4.67,2.03-6.3c1.35-1.63,3.24-2.45,5.67-2.45s4.32.82,5.67,2.45c1.35,1.63,2.03,3.73,2.03,6.3s-.68,4.67-2.03,6.3Zm-1.43-3.96c.05-.68.07-1.46.07-2.34s-.02-1.67-.07-2.34-.16-1.4-.33-2.17c-.17-.77-.41-1.41-.7-1.91-.29-.5-.71-.92-1.26-1.24-.55-.33-1.2-.49-1.94-.49s-1.39.16-1.94.49c-.55.33-.97.74-1.26,1.24-.29.5-.53,1.14-.7,1.91-.17.77-.29,1.49-.33,2.17-.05.68-.07,1.46-.07,2.34s.02,1.67.07,2.34c.05.68.16,1.4.33,2.17.17.77.41,1.41.7,1.91.29.5.71.92,1.26,1.24s1.2.49,1.94.49,1.39-.16,1.94-.49c.55-.33.97-.74,1.26-1.24.29-.5.52-1.14.7-1.91.18-.77.29-1.49.33-2.17Z"/><path class="cls-1" d="m125.5,16.75v18.17c0,2.33-.62,4.11-1.86,5.34-1.24,1.22-2.64,1.84-4.22,1.84s-2.89-.44-3.95-1.31c-1.06-.88-1.59-2.04-1.59-3.48,0-.96.29-1.73.88-2.31.58-.58,1.29-.88,2.12-.88s1.5.25,2.01.75c.51.5.77,1.08.77,1.73s-.2,1.21-.59,1.68-.92.7-1.58.7-1.17-.18-1.54-.54c-.37-.36-.56-.8-.56-1.31,0-.79.36-1.33,1.08-1.61.19-.07.28-.2.28-.39s-.16-.28-.49-.28-.7.22-1.12.65-.63,1.03-.63,1.8c0,1.17.41,2.12,1.22,2.87s1.71,1.12,2.7,1.12,1.8-.33,2.45-.98c.65-.65.98-1.61.98-2.87v-20.69h-2.9v-.56h9.1v.56h-2.55Z"/><path class="cls-1" d="m143.66,23.37h-2.49v-.52h.74c1.82,0,3.44-.15,4.87-.46v16.03h2.31v.53h-5.5v-3.04h-.21c-.4,1.12-1.07,2.02-2.01,2.71-.95.69-2,1.03-3.17,1.03-1.98,0-3.32-.59-4.01-1.79s-1.03-2.99-1.03-5.39v-9.1h-2.49v-.52h.74c1.82,0,3.44-.15,4.87-.46v9.59c0,2.19.08,3.57.25,4.13.16.56.34,1.04.52,1.43.37.75,1.01,1.12,1.91,1.12s1.68-.27,2.34-.8c.67-.54,1.16-1.27,1.49-2.21.58-1.66.88-3.64.88-5.95v-6.33Z"/><path class="cls-1" d="m159.55,38.42v.53h-7.73v-.53h2.31v-15.05h-2.49v-.52h.74c1.84,0,3.49-.15,4.93-.46v3.5h.21c.4-1.12,1.07-2.02,2.01-2.71.95-.69,2-1.03,3.17-1.03,2.03,0,3.42.6,4.17,1.8.75,1.2,1.12,2.99,1.12,5.37v9.1h2.31v.53h-7.74v-.53h2.31v-8.61c0-2.64-.2-4.38-.59-5.21-.19-.37-.47-.71-.86-1.02-.39-.3-.95-.46-1.7-.46s-1.45.27-2.12.81-1.16,1.27-1.49,2.21c-.58,1.66-.88,3.64-.88,5.95v6.33h2.31Z"/><path class="cls-1" d="m179.99,29.77l-2.24.38v8.26h2.31v.53h-7.74v-.53h2.31V15.32h-2.48v-.53h.73c1.82,0,3.44-.15,4.87-.46v15.23c4.62-.61,6.93-2.1,6.93-4.48,0-.7-.18-1.26-.54-1.68-.36-.42-.81-.63-1.35-.63-.23,0-.35.09-.35.28s.1.3.31.35c.61.14.91.59.91,1.37,0,.49-.18.89-.54,1.21-.36.32-.81.47-1.33.47s-.97-.19-1.33-.58c-.36-.38-.54-.88-.54-1.49s.24-1.13.72-1.58c.48-.44,1.11-.67,1.91-.67s1.45.26,1.96.79c.51.53.77,1.24.77,2.15,0,1.94-1.21,3.34-3.64,4.2v.07c1.82.09,3.01.57,3.57,1.43.56.86.84,2.28.84,4.24v1.33c0,.89.08,1.52.23,1.91.15.38.44.58.86.58.16,0,.37-.03.63-.1l.07.42c-.61.16-1.24.25-1.89.25-2.01,0-3.01-1.16-3.01-3.46v-1.89c0-2.85-.91-4.27-2.73-4.27h-.21Z"/><path class="cls-1" d="m195.11,38.42h2.31v.53h-7.74v-.53h2.31v-15.05h-2.49v-.52h.74c1.82,0,3.44-.15,4.86-.46v16.03Zm-3.13-19.41c-.38-.38-.58-.87-.58-1.45s.19-1.07.58-1.47c.38-.4.87-.59,1.45-.59s1.07.2,1.47.59c.4.4.6.89.6,1.47s-.2,1.07-.6,1.45-.89.58-1.47.58-1.07-.19-1.45-.58Z"/><path class="cls-1" d="m208.24,22.14c1.75,0,3.21.37,4.39,1.12,1.18.75,1.77,1.87,1.77,3.36,0,2.31-1.32,3.73-3.96,4.27-1.33.26-2.99.38-4.97.38h-1.64v1.01c0,1.89.39,3.42,1.17,4.6.78,1.18,1.92,1.77,3.43,1.77s2.68-.44,3.54-1.33c.85-.89,1.45-2.03,1.8-3.43l.63.07c-.37,1.7-1.13,3.07-2.26,4.11s-2.56,1.56-4.29,1.56c-2.43,0-4.27-.8-5.53-2.4s-1.89-3.72-1.89-6.35.68-4.75,2.03-6.35c1.35-1.6,3.28-2.4,5.78-2.4Zm-4.41,8.5h1.22c1.89,0,3.21-.19,3.97-.56.76-.37,1.28-.83,1.56-1.38s.42-1.32.42-2.33-.25-1.86-.75-2.57c-.5-.71-1.27-1.07-2.29-1.07s-1.86.37-2.5,1.1c-.64.74-1.07,1.59-1.3,2.57-.22.98-.33,2.07-.33,3.25v.98Z"/></svg>