<?xml version="1.0" encoding="UTF-8"?><svg id="Layer_1" xmlns="http://www.w3.org/2000/svg" width="382" height="372" viewBox="0 0 382 372"><defs><style>.cls-1{fill:#666;stroke:#000;stroke-miterlimit:10;}.cls-2{stroke-width:0px;}</style></defs><path class="cls-1" d="m79.11,372v-125.82c.05.04,1.15-2.07,3.21-5.5,3.86-6.41,31.28-50.33,67.87-51,33.61-.61,56.97,35.66,58.31,37.81,10.97,17.55,11.98,45.7,14,102,0,0,.02.45,1.33,42.5h0"/><path class="cls-2" d="m140.18,228.01h-3.93v-.42c.36,0,.62-.03.8-.08.18-.06.3-.18.36-.36.06-.19.09-.48.09-.87v-6.01c0-.26-.03-.47-.08-.62-.05-.15-.17-.26-.34-.32-.18-.06-.45-.1-.83-.1v-.42h3.44c.7,0,1.32.07,1.87.2.55.14.97.37,1.28.7.31.33.46.8.46,1.39,0,.52-.12.95-.36,1.27-.24.33-.54.58-.9.76-.36.18-.73.32-1.11.41v.06c.16.09.34.25.54.48.2.23.46.56.78,1.01.32.44.73,1.03,1.25,1.77.22.31.44.5.65.59s.47.13.79.13v.42h-2.31c-.38-.58-.7-1.06-.96-1.45-.26-.39-.47-.71-.65-.98-.18-.27-.34-.5-.48-.71-.14-.21-.28-.41-.42-.62-.14-.21-.27-.35-.39-.39-.12-.05-.3-.07-.55-.07h-.39v2.48c0,.38.03.67.1.86s.2.31.39.37c.2.06.5.08.9.08v.42Zm-1.39-4.76h.53c.51-.01.96-.1,1.34-.24.38-.14.68-.36.9-.66.21-.3.32-.7.32-1.19,0-.56-.17-1-.52-1.32-.34-.32-.9-.48-1.65-.48-.15,0-.3,0-.46,0-.16,0-.31.02-.46.04v3.85Z"/><path class="cls-2" d="m149.37,228.01h-4.03v-.42c.42,0,.73-.04.92-.1.2-.07.32-.21.38-.41.06-.2.08-.5.08-.9v-5.52c0-.36-.02-.65-.07-.86s-.17-.36-.36-.44-.51-.13-.96-.13v-.42h4.03v.42c-.44,0-.76.04-.95.13-.2.08-.31.23-.36.44s-.06.5-.06.86v5.52c0,.4.03.7.08.9.06.2.18.34.38.41.2.07.5.1.91.1v.42Z"/><path class="cls-2" d="m154.43,228.01h-3.95v-.42c.36,0,.63-.03.81-.1.18-.06.29-.19.35-.38.06-.19.08-.48.08-.88v-6.02c0-.41-.09-.68-.26-.8-.17-.12-.48-.18-.93-.18v-.42h3.49c.45,0,.88.04,1.29.11.42.07.78.19,1.11.36.32.17.58.4.77.71s.29.69.29,1.15c0,.54-.1,1-.31,1.37-.21.37-.48.66-.83.89-.35.22-.74.38-1.18.48s-.89.14-1.34.14c-.14,0-.29,0-.45-.03-.16-.02-.28-.05-.35-.08v2.39c0,.38.04.67.12.85.08.19.22.31.43.36.21.06.49.08.87.08v.42Zm-.66-4.58c.5,0,.93-.06,1.27-.19.35-.13.61-.34.78-.64.18-.3.27-.73.27-1.27,0-.63-.18-1.12-.55-1.46-.37-.34-.93-.51-1.69-.51-.14,0-.28,0-.41.01-.14,0-.28.02-.43.04v3.96c.07,0,.18.02.33.03.15.01.29.02.43.02Z"/></svg>