<?xml version="1.0" encoding="UTF-8"?><svg id="Layer_1" xmlns="http://www.w3.org/2000/svg" width="1920" height="1080" xmlns:xlink="http://www.w3.org/1999/xlink" viewBox="0 0 1920 1080"><defs><style>.cls-1{fill:url(#linear-gradient);}.cls-1,.cls-2,.cls-3,.cls-4,.cls-5,.cls-6,.cls-7,.cls-8,.cls-9,.cls-10,.cls-11,.cls-12{stroke-width:0px;}.cls-13{stroke:#000;}.cls-13,.cls-14{stroke-miterlimit:10;}.cls-13,.cls-7{fill:#fff;}.cls-14{fill:#f7931e;stroke:#ed1c24;}.cls-3{fill:gray;}.cls-4{fill:#090300;}.cls-5{fill:#0d0c00;}.cls-6{fill:#1f1200;}.cls-8{fill:#fff1f7;}.cls-9{fill:#ff0;}.cls-10{fill:#f1b500;}.cls-11{fill:#e6e6e6;}.cls-12{fill:#001206;}</style><linearGradient id="linear-gradient" x1=".5" y1="540" x2="1919.5" y2="540" gradientUnits="userSpaceOnUse"><stop offset="0" stop-color="#fff"/><stop offset="1" stop-color="#000"/></linearGradient></defs><rect class="cls-1" x=".5" y=".5" width="1919" height="1079"/><path class="cls-2" d="m1919,1v1078H1V1h1918m1-1H0v1080h1920V0h0Z"/><path class="cls-3" d="m1189.27,175.86c2.03,5.03,4.1,10.11,7.09,14.78,3.93,6.93,8.51,14.25,12.07,21.43,3.68,8.24,5.24,19.67,3.85,27.76-1.82,7.96-3.66,16.62-6.34,24.21-2.71,6.28-6.65,12.33-10.86,17.69-4.58,5.23-9.83,10.09-14.86,14.95-2.34,2.18-4.3,3.43-6.1,5.5-1.61,1.83-1.95,4.42-1.77,7.11.13,2.59.89,5.34.59,8.02-.97,7.17-6.73,12.41-13.38,14.17-14.08,3.44-29.62-5.59-44.18-6.19-9.07-.41-12.47,4.98-13.33,13.37-.66,5.42-1.52,10.49-2.71,15.81-1.56,8.59-2.68,17.72-2.01,26.82.89,9.98.76,21.1-5.08,28.45-2.69,3.17-6.17,5.39-9.71,7.61-5.53,3.31-10.28,3-14.77-3.96-3.89-5.71-5.17-12.52-7.22-18.76-1.3-4.07-3.62-4.95-6.77-3.12-2.18,1.17-4.79,3.22-7.38,4.22-3.63,1.56-7.71,2.09-11.7,2.79-7.79,1.24-14.08,5.35-20.14,9.8-3.16,2.36-6.76,4.37-9.67,6.87-2.91,2.48-4.69,5.45-4.93,9.43-.3,3.11.17,6.99-1.13,9.6-1.91,3.82-7.55,1.87-11.09-.51-8.95-5.47-16.39-12.81-22.66-21.57-2.94-3.93-6.27-8.38-7.35-12.91-2.32-9.6,5.06-18.97,9.78-25.69,2.74-3.9,6.58-7.97,6.34-14.62-.06-1.7-.15-3.54-1.39-5.27-3.53-4.94-13.65-5.14-20.59-2.31-3.64,1.48-3.78,2.31-12.63,9.84-3.54,3.01-7.08,6.09-11.61,7.53-8.98,2.9-16.36-6.03-21.44-13.67-5.02-7.5-9.99-15.4-12.52-23.84-1.7-5.14-.97-12.29,5.05-12.11,3.3,0,6.95,2.63,10.1,3.51,4.35,1.18,4.87-5.95,6.51-8.91,2.43-5.51,5.96-10.25,9.74-14.75,14.08-14.27,5.46-19.01,13.43-29.26,2.55-3.22,7.15-5.17,10.18-7.63,3.34-3.12-7.96-2.14-9.47-2.46-9.84-.16-23.14-3.71-22.51-16.6.09-4.11.63-8.58,2.41-11.84,2.77-5.07,9.51-4.81,19.49-5.08,2.22-.06,1.65.06,15.71.71,9.03.42,8.82.35,12.39.56,8.35.49,9.02.84,18.39,1.53,10.31.76,15.21.76,20.38.22,7.79-.82,9.57-2.15,10.33-2.89,3.07-3.01,3.43-8.24,3.52-15.08.15-8.67,1.3-16.11-3.32-24.75-4.19-7.64-6.91-12.73-1.28-19.14,2.48-2.59,5.42-4.92,8.08-7.28,3.57-3.08,7.47-4.94,12.36-1.59,1.77,1.03,3.51,2.67,5.39,3.06,5.11.7,8.55-6.48,11.75-9.92,5.19-6.42,11.49-12.39,18.29-16.85,3.84-2.31,8.17-3.64,12.53-5.14,9.11-3.58,19.18-3.86,29.36-3.56,4.29.1,8.74,1.65,13.35,3.32,6.49,2.54,13.81,4.63,20.11,7.79,3.33,1.77,6,4.59,8.57,7.44,5.78,6.41,10.78,11.63,13.96,15.88"/><path class="cls-13" d="m715.5,419.5c21.79-7.98,54.11-19.25,94-31,47.49-13.99,71.64-20.98,91-21,57.22-.05,73.67,32.93,128,47,36.85,9.54,53.68.68,157-23,201.32-46.15,238.75-35.76,260-27,10.07,4.15,80.47,34.34,91,97,10.16,60.44-40.01,123.59-92,141-38.11,12.76-49.95-8.18-101,3-57.81,12.66-54.6,42.13-110,58-72.78,20.85-145.91-10.63-170-21-34.46-14.83-27.83-19.49-50-26-72.15-21.2-104.4,39.24-193,38-59.57-.83-60.14-28.36-127-28-61.89.34-69.56,23.97-127,28-58,4.07-154.86-12.68-186-80-19.76-42.72-9.13-97.32,16-132,51.05-70.47,182.16-86.62,319-23Z"/><path class="cls-8" d="m940.96,110.55c5.11,1.79,10.3,3.58,15.79,4.42,7.8,1.62,16.33,3,24.07,5.06,8.62,2.67,18.24,9.04,23.41,15.42,4.78,6.62,10.07,13.71,14.02,20.73,2.94,6.17,4.88,13.14,6.14,19.83.91,6.89,1.1,14.05,1.43,21.03.09,3.2-.26,5.49.11,8.22.31,2.42,2.03,4.38,4.18,6.02,2.03,1.61,4.6,2.85,6.42,4.84,4.75,5.46,4.89,13.24,1.83,19.4-6.7,12.85-23.74,18.58-33.8,29.13-6.29,6.54-4.48,12.65,1.26,18.84,3.64,4.07,6.88,8.06,10.09,12.47,5.42,6.84,11.55,13.7,18.83,19.21,8.09,5.91,16.36,13.34,18.04,22.59.61,4.11-.01,8.19-.68,12.32-1.16,6.34-4.53,9.71-12.72,8.49-6.86-.84-12.82-4.37-18.87-6.94-3.92-1.7-6.11-.54-6.81,3.03-.56,2.41-.74,5.73-1.7,8.33-1.22,3.76-3.52,7.18-5.62,10.63-4.2,6.68-5.26,14.11-5.92,21.6-.31,3.94-1.18,7.96-1.22,11.8-.06,3.82,1.01,7.12,3.84,9.93,2.14,2.28,5.37,4.48,6.47,7.18,1.61,3.95-3.57,6.91-7.7,8-10.01,3.12-20.44,3.87-31.16,2.8-4.89-.38-10.44-.81-14.56-2.99-8.74-4.58-10.92-16.32-12.85-24.29-1.12-4.63-1.65-10.2-6.81-14.41-1.32-1.08-2.76-2.22-4.88-2.43-6.04-.61-12.86,6.87-15.32,13.95-1.29,3.71-.75,4.36-.93,15.98-.07,4.64-.09,9.34-2,13.69-3.74,8.66-15.32,8.32-24.41,7.1-8.95-1.18-18.16-2.64-26.18-6.31-4.99-2.11-9.88-7.38-5.77-11.78,2.17-2.48,6.57-3.49,9.31-5.28,3.76-2.49-1.26-7.59-2.41-10.77-2.53-5.46-3.77-11.24-4.66-17.05-1.45-19.99-10.69-16.64-13.14-29.39-.73-4.04.83-8.78.97-12.68-.14-4.57-6.86,4.57-8.1,5.49-6.62,7.29-18.05,14.95-27.32,5.97-3.03-2.78-6.03-6.14-7.31-9.62-1.99-5.43,2.66-10.32,9.04-18,1.42-1.71,1.13-1.2,10.89-11.34,6.27-6.51,6.08-6.4,8.59-8.95,5.88-5.95,6.58-6.23,13.28-12.81,7.37-7.25,10.6-10.93,13.6-15.18,4.52-6.4,4.7-8.61,4.64-9.68-.24-4.3-3.94-8.01-9.02-12.59-6.42-5.83-11.25-11.6-20.79-13.83-8.51-1.88-14.13-3.2-15.23-11.66-.31-3.57-.12-7.32-.15-10.87.04-4.71,1.21-8.87,6.96-10.34,1.94-.65,4.32-.87,5.86-2.03,3.9-3.38.77-10.7.29-15.38-1.41-8.14-1.74-16.8-.61-24.86.8-4.41,2.65-8.54,4.4-12.8,3.31-9.21,9.75-16.97,16.69-24.42,2.9-3.16,7-5.48,11.3-7.85,6.19-3.2,12.59-7.32,19.12-9.98,3.53-1.34,7.4-1.48,11.24-1.53,8.63-.12,15.85-.43,21.14-.02"/><ellipse class="cls-7" cx="861.99" cy="205.05" rx="6.52" ry="10.21"/><ellipse class="cls-5" cx="905.98" cy="200.88" rx="6.14" ry="10.59"/><ellipse class="cls-5" cx="949.6" cy="200.88" rx="6.14" ry="10.59"/><path class="cls-10" d="m898.06,113.83c.34-5.36,1.38-10.91,5.43-15.2,2.3-2.39,5.62-5.11,7.76-4.5,2.43,1.31-1.97,9.46-2.06,12.19-.19,1.53-.73,4.82,1.14,5.57,1.87.23,3.43-1.95,4.47-3.22,1.52-2.03,2.67-4.35,3.59-6.65,1.31-3.29,2.54-6.75,3.67-8.49.27-.44.64-.92,1.04-1.18,1.31-.73,2.09.9,2.97,2.71.66,1.45,1.38,3.23,2.43,4.85,2.71,4.48,9.17,8.53,13.42,3.07,2.26-2.68,2.17-6.73,3.46-9.44.79-1.86,3.19-3.86,5.55-2.49,5.95,4.18,4.26,11.07,5.58,17.19.33,1.77.84,3.57,1.31,5.29.64,2.66,1.82,6.05-1.26,7.76-1.1.62-2.72,1.01-4.81,1.17-3.01.21-6.71.12-9.98.13-11.87-.03-22.11-.06-33.46-.1"/><path class="cls-6" d="m915.04,243.36c11.59,4.99,26.59,0,26.59,0"/><path class="cls-12" d="m920.93,224.33c7.84,5.12,14.81,0,14.81,0"/><path class="cls-6" d="m915.04,243.36c11.59,4.99,26.59,0,26.59,0"/><path class="cls-6" d="m915.04,243.36c11.59,4.99,26.59,0,26.59,0"/><path class="cls-4" d="m859.75,283.83l-46.37,48.27,25.59,21.65,8.1-5.49-.97,12.68c-1.16,4.86,8.16,13.48,8.16,13.48l4.98,15.92,2.95,12.77,54.11,1.65s-.66-4.1,10.46-12.24c11.12-8.13,16.54,15.13,16.54,15.13l55.96-.63,2.02-18.71,5.11-14.68,5.62-10.63,1.7-8.33s-.31-6.27,6.81-3.03,4.92,2.23,4.92,2.23l15.06-34.16-29.01-29.5-5.68-6.69-5.21-10.3-69.43,6.35-67.6-8.52"/><path class="cls-14" d="m660.09,454.39c.36.79.79,1.15,1.37,1.94l1.44,1.51.79-.72.36-.58c.5-.65,1.58-2.09,2.88-3.67l2.3-2.88c-.14.14,1.15-1.8,1.01-1.58.58-.58,1.08-1.66,1.8-2.52.43-.65.79-1.44,1.3-2.09l.58-1.15q.43-.43.79-.43c1.3.94,2.09,1.94,3.31,3.1l.36.43c.36.5.65.86.86,1.3-.07.22-.5.79-.86,1.22l-2.74,4.03c-.94,1.66-2.09,2.88-3.24,4.03-.94.94-1.73,2.09-2.52,2.88-1.15,1.66-2.45,2.88-3.31,4.03l-.29.36c-.14,2.74.07,6.05.14,7.13,0,.43-.07,1.15-.07,1.15.14,2.59.22,4.25.22,5.62,0,2.09-.14,3.67.14,5.76,0,1.37.07,3.67.22,5.11v1.22c-.07.36-1.37.29-1.58.5-.86.29-2.81.22-4.03.07-.14-.5-.36-.5-.58-.86v-1.73c0-.79.07-1.58,0-3.1,0-.5-.22-2.3-.14-2.74.14-2.16.36-3.67.29-5.47-.07-1.8.22-3.24.29-3.67v-2.38c-.07-1.08-.22-2.59-.14-2.66.07-.22,0-.5,0-.65,0-.43,0-1.44.07-1.8,0-.72-.36-1.08-.79-1.51-.36-.43-.94-.86-1.08-1.22l-1.08-1.08c-.79-.43-1.94-2.74-3.31-3.96-.58-.58-3.46-4.03-3.74-4.39-.29-.22-1.22-1.8-1.3-1.94-.5-.65-.94-1.01-1.3-1.66l-1.8-2.74v-.36c.86-.5,1.22-1.3,2.02-1.73.43-.36,1.22-1.15,1.58-1.51h.94c.36.79,1.15,1.51,1.51,2.3.07.29.58.65.58.79.22.07,1.08,1.08,1.22,1.44l1.08,1.51c.43.58.65.79,1.08,1.51.14.22.72,1.08,1.01,1.3.79.79,1.66,1.58,2.38,2.52Z"/><path class="cls-14" d="m692.06,458.92c1.22,0,2.23-.07,3.46-.07.94,0,1.87,0,2.66.29.14,0,.5.07.94.5,1.94.5,3.46,3.02,4.39,4.9.5.79.5,2.23.79,3.02,0,1.37.22,2.59.22,3.89,0,2.16-.14,4.1-.14,6.34l-.14,2.38c0,.36-.58,1.66-.65,2.09-.29.94-.86,2.59-1.08,2.81-.94.94-.5,1.58-1.66,2.16-.43.22-1.22.72-1.8,1.08-.43.22-.22.29-.86.5l-1.3.29c-1.15.22-1.73,0-2.59,0-1.3,0-2.74-.29-4.03-.79-.86,0-1.8-.5-2.16-.94-.43-.36-.94-.79-1.44-1.3-.79-.86-1.22-1.73-1.66-2.66-.43-1.08-1.15-2.16-1.37-3.46-.22-2.16-.36-3.96-.36-5.76v-2.95c-.07-.14-.07-1.01,0-1.15,0-.5.07-1.01.14-1.51.07-.79-.07-1.58.43-2.3-.14.29,1.08-2.45,1.01-2.23l.5-.94c.65-.65.86-1.3,4.03-3.46.65-.22,1.73-.72,2.66-.72Zm1.73,13.47c-.36.79-.5,1.37-.5,1.8,0,1.37.5,2.16,1.37,2.59.43,0,.86-.43.86-.79,0-.94.5-2.23,0-3.6-.43-.43-.43-.79-.86-.79-.36,0-.79.5-.86.79Z"/><path class="cls-14" d="m712.94,483.98c-.43-.5-.86-.72-.94-1.15-.65-1.44-1.66-2.3-1.94-3.67-.29-1.3-.58-2.81-.72-4.03,0-1.3-.14-2.38-.14-3.74,0-1.44.22-2.45.22-3.89,0-.94-.07-2.02-.07-2.95v-1.01c0-.86.22-1.8.22-2.74,1.15-.07,3.17,0,4.03,0,.29.07,1.66-.07,2.02-.07.43,0,2.66,0,3.1.07,0,0-.22,1.22-.22,1.66,0,1.3-.14,2.3-.14,3.46s.29,7.63.5,8.78c0,.94.07,1.44.14,2.38.07,1.01.65,1.8.86,2.02l.43,1.15,1.01,1.3c.65.86,1.94.86,3.02.79l1.66-.14c.79-.07,1.87-1.37,2.59-1.8.43-.43.79-1.51,1.08-2.45.07-.14.86-3.67.86-3.89.07-.79.22-1.8.14-2.59-.14-.86.14-2.02.14-2.95,0-.79.14-1.87.22-2.38,0,.14.14-2.16.07-2.38-.07-.58-.29-1.08-.29-1.66,0-.29.14-.58.14-.86h1.51c.36,0,.72.14.94.14.94,0,1.66.07,2.09,0,.43-.14.65-.07,1.15-.14.72.14,1.15-.07,2.02,0,.07.5-.14,1.44-.14,2.3,0,1.8.07,3.74,0,5.62-.07,1.01,0,2.02-.14,2.95,0,.29-.07,2.45,0,2.66.36,2.09-.14,6.62-.07,8.71,0,1.44.14,2.81.14,4.25-2.3.43-4.39.29-6.7.43-.14-.22-.22-.43-.22-.94s-.07-.86-.14-1.3c-.07-.43-.14-1.08-.14-1.08-.14,0-.65.72-1.08.86-.94.43-1.87,1.01-2.81,1.15-1.87.86-4.32.86-6.77.86-1.44,0-2.38-.58-3.31-1.08-1.51-.58-3.6-2.09-4.32-2.66Z"/><path class="cls-14" d="m778.24,478.87c0-.86-.5-1.8-1.44-2.3-2.3-.86-4.61-1.8-7.42-2.3-1.37-.5-2.74-.94-4.68-1.44-1.8-.86-3.1-2.38-3.6-4.61,0-1.8-.22-3.53.65-5.33,1.08-2.66,1.66-2.16,2.81-3.17,2.16-.86,3.46-1.15,5.76-1.66.94-.5,1.87-.5,2.74-.5h3.89c1.44,0,2.66-.07,3.96,0,2.09.07,3.74.43,6.12.86,1.01.14,1.8.29,2.38.5-.14.43-.36,1.66-.43,2.74,0,.14-.07.36-.07.5s-.07.36-.22.43c-.14.07-.43-.07-.72-.14-1.66-.14-3.38-.14-5.11-.07-1.73.07-3.53.43-5.11.65-.72.22-1.44.36-2.09.5-.72.14-1.37.5-2.09.94-.43.5-.79,1.01-1.01,1.58-.22.5-.36,1.08-.36,1.73-.14.5,0,1.73.58,2.38.58.65,1.08,1.08,1.73,1.3,1.8.5,3.53.86,4.9,1.22.43,0,1.15.29,1.58.29,1.94.14,3.31.65,5.11,1.3,1.37.5,2.81.94,4.1,1.8,1.01,1.44,1.44,2.3,1.94,3.74v1.87c0,.94-.5,1.87-.94,2.38-.5,1.3-1.37,2.3-2.81,3.24-1.8,1.37-3.74,2.3-6.05,2.66-3.24,1.01-6.48,1.15-10.15.65l-3.96-.36c-.86-.07-2.09-.29-3.24-.65-1.66-.5-2.3-.43-2.38-.58-.07-.14-.22-.36-.22-.43-.43-1.08-.36-1.8-.86-3.17-.22-.5-.29-.86-.36-1.22,0,0-.07-.36,0-.65.5,0,.79.14,1.22.14,1.15.29,2.88.65,3.74.65s1.87.07,3.24.07c1.15.07,2.45.22,3.67-.29.65-.5,2.95-1.15,3.74-2.02.94-.86,1.44-1.8,1.44-3.24Z"/><path class="cls-14" d="m823.03,487.51l-.5.07c-.5.07-.43,0-1.15,0-.22.07-2.09.5-2.95.07-.5,0-.5-.14-1.01-.14-.43-.36-.43-1.3-.43-1.8v-1.8l-.58.79-1.3,1.22c-.94.65-1.44,1.08-2.3,1.51-1.44.86-3.24,1.08-4.68,1.08s-3.17-.79-4.39-1.22c-.36-.07-.72-.36-1.01-.58-.58-.5-1.37-1.01-1.87-1.44-.29-.22-.5-.5-.86-.65-.29-.14-.5-.43-.65-.72-.5-1.01-1.37-1.94-1.8-3.31-.29-1.01-.94-2.02-.94-2.88,0-.43-.14-2.02-.14-2.45,0-.86.07-1.15.07-2.09,0-.43.14-.94.36-1.8.14-1.01.22-2.45.43-3.17.65-1.22.79-1.22,1.01-1.94.22-.58.5-1.73,1.15-2.16.5-.36,2.59-2.3,2.88-2.38l1.3-.58c.79-.29,1.8-.43,2.66-.43l2.23-.07c.5,0,1.22,0,1.44.07.43,0,.94.43,1.44.43.43,0,1.3.43,1.8.86.94.36,1.44,1.01,1.87,1.44.43.5.94.86,1.37,1.37.07.29.5.5.5.5.14-.22.14-.86.43-1.37.07-1.37.14-2.59.22-2.95-.07-.36.07-1.37.58-1.22.43-.14,3.02.43,4.32.43.07,0,.07.65,0,.94l.43,6.91v7.78c0,.29-.07.58-.07.86.07.86.07,1.8.07,2.74.07.65,0,1.37,0,2.16,0,1.22.14,4.25.07,5.54v.36Zm-9.29-11.09c0-.58.58-2.66-.5-5.54-.29-.72-.79-1.8-2.02-2.23-.65-.14-1.22-.5-1.87-.43-.65.22-1.87.94-2.52,1.87-.43.5-.5,1.01-.58,1.8-.29,1.22-.43,1.73-.43,2.74,0,1.87,1.58,3.53,1.87,3.96.29.29.43.14.94.65.94.43,1.8,0,2.81-.5h.43c.86-.43,1.37-.86,1.87-1.8.07-.07,0-.5,0-.5Z"/><path class="cls-14" d="m843.26,477.29c.5,0,.5-.5.94-1.08,1.22-2.45,2.02-3.96,3.24-6.26l1.37-3.31c.36-.65,1.37-2.16,1.51-2.81.14-.58.29-.72.5-1.37.07-.29,1.08-2.02,1.22-2.3,1.87.43,3.31.94,5.11,1.87-.5.86-.65,1.3-.86,1.87-.58,1.15-1.66,2.59-1.8,2.95l-1.3,3.1c-.36.72-.79,1.44-1.3,2.16-.07.22-.22.58-.43.79-.86,1.44-3.1,6.48-4.03,7.63-.72,1.44-1.22,2.3-1.87,3.74-.07.5-.36.94-.58,1.37-.14.43-.36.94-.79,1.44-.36.14-3.02.5-3.53.36-.43-.14-1.08-1.8-1.3-2.02l-1.22-1.66c-.29-.5-1.15-2.38-2.23-3.74l-1.44-2.74c-.29-.65-1.01-2.02-1.44-2.59-.36-.43-.43-1.01-.86-2.02-.5-.43-1.15-2.38-2.09-3.31-.14-.29-.79-1.22-1.22-1.8-.5-1.01-1.01-1.87-1.8-3.24,0,0,.14-.36.58-.58.58-.5,1.15-1.08,2.45-1.66l2.52-1.94c.5,0,.86.43.86.43,1.22,1.22,1.51,2.66,2.52,3.96.58,1.01,1.8,3.74,2.45,4.68,1.51,2.02,3.1,5.18,4.32,7.2.07.14.36.79.5.86Z"/><path class="cls-14" d="m881.85,473.83c-.29.29-1.01.36-1.44.36-.65.14-1.8.14-2.45.14-1.3,0-1.66.07-3.17.22l-4.32.36v.86c0,1.08.22,2.09,1.01,3.1.43.72,1.22,1.51,1.87,1.73,0,0,1.44.65,2.09.58,2.59,0,3.31-.65,5.04-1.51.36,0,.86-.58,1.08-.65.43-.14,1.66-1.22,2.09-1.44.29.22.07,1.58.22,2.52,0,0,.07,1.3,0,2.23-1.01,1.08-.58.79-1.8,1.94-.94.94-1.8,1.44-2.74,1.73-1.08.58-2.52.72-3.24,1.01-.79.14-1.8.14-1.8.14-1.8,0-3.53.14-5.4-.79-.65.07-2.23-.58-2.59-1.01-1.01-.58-1.8-1.58-2.74-2.23-1.3-.94-1.73-2.02-2.23-3.17-.5-.86-.86-2.02-1.22-3.02,0-1.01-.07-2.02-.07-2.95v-2.66c0-1.73.86-4.46,1.87-6.19,0,0,.79-.86,1.73-1.8.29-.07.58-.29,1.22-.65.29-.14.72-.79,1.44-1.01,1.08-.36,2.09-.94,2.59-.94.65,0,2.74.14,4.39.22.86.07,1.44.36,1.73.36.72.07,1.22.14,1.8.36,1.73.58,2.38,1.22,2.95,1.87.36.43.72,1.22,1.08,1.66.43.58.94,1.73,1.15,2.66.22.79.29,2.23.29,3.17s-.07,1.22-.07,2.09c0,.22-.14.5-.36.72Zm-5.98-5.98c-.79-1.22-2.45-1.37-3.46-1.15-.65.14-.72.43-1.08,1.01-.14.14-.22.36-.43.58-.14.22-.22.58-.29.86-.14.43-.14.5,0,1.22.72.43,4.97.43,5.69,0,.07-.07-.29-.5-.29-1.44,0-.22,0-.86-.14-1.08Z"/><path class="cls-14" d="m909.86,452.37c-.14-1.44.14-2.95.07-4.39,0-.58.07-1.22.07-1.8.5-2.3.29-4.61.72-7.49v-.86c1.87.5,3.53.86,5.33.86-.5,1.44-.5,2.88-.5,4.25,0,2.74-.36,5.54-.36,8.28,0,.58-.14,1.22-.14,1.8.14,1.44-.14,4.97.22,6.48-.29,2.3,0,4.68-.07,6.98-.14,1.58,0,3.1,0,4.68s.07,3.24.07,4.9-.43,4.18-.36,5.83c0,2.3-.22,3.89-.22,5.76,0,.86-.5,1.01-1.51,1.01-1.37.14-2.23,0-3.6,0-.94,0-.94-.5-.94-.86v-1.3s-.22-.43-.43-.5c-.5.5-1.44.5-2.3,1.01-1.44.94-3.24,1.3-5.18,1.3-1.37,0-2.3,0-3.17-.36-.5,0-.5-.5-.94-.5-1.87-.94-3.24-1.87-4.61-3.24-1.44-1.44-1.94-2.81-2.88-4.68-.36-1.37-.36-2.81-.86-4.1,0-1.94,0-3.74.86-5.11.5-2.38,1.94-4.18,3.74-5.54.94-.94,2.3-1.44,3.74-1.94.94,0,2.3,0,3.24-.43,1.37,0,2.3,0,3.74.43.36.5,1.37.5,1.8,1.01.86.43,1.87.94,2.81,1.3.43-.36.22-1.3.72-2.3,0-.43.22-1.3.22-2.3.07-2.3.43-5.83.72-8.14Zm-9.14,16.99c-1.8.94-2.74,3.24-2.74,5.04,0,1.01.43,1.44.43,2.3,0,1.44.94,2.3,2.3,3.31.5.43,1.44.43,2.38,0,.86-1.01,2.3-1.87,2.3-3.67.5-1.94,0-3.24-.43-4.68-.5-1.37-1.87-2.3-3.31-2.3h-.94Z"/><path class="cls-14" d="m953.49,487.29c0,.58,0,1.94-.07,2.52.07.36-.36.79-.5.94h-1.87c-.5,0-1.15-.07-1.66-.07-.72.29-3.1.07-3.38.07q-.43-.5-.43-.94v-6.91l-.14-4.25.14-4.82-.07-4.18-.29-3.46c-1.15,0-3.1.22-3.96,0-1.66-.29-2.3,0-3.6,0v-4.61h.43c.43,0,.86-.07,1.01,0,.5.36,1.73.07,1.66-.07,1.08-.07.94-.07,1.8-.07.79,0,2.66.07,3.17,0,.07,0,0-2.66,0-3.67.22-1.8.22-3.17.29-5.04.07-1.3.07-2.52.07-3.89s.22-3.6.14-5.11c0-.5-.22-.5-.22-.94s0-.72.5-.72c.86,0,1.87.14,2.74.14,1.44,0,2.74,0,3.46.07.65.07,1.15.14,1.66.29.07,0,0,1.94-.07,3.02-.07,2.38-.07,3.89,0,6.26,0,1.08-.07,2.23,0,3.31,0,.58-.29,4.39-.36,4.97,0,.5.29.94.43.94.5,0,1.37.22,1.87.22.43,0,.94.22,1.87.22.86,0,1.8.07,2.81.07.43,0,.86.07.86.07.43,1.44.43,3.6,0,4.54h-.43c-1.87.22-3.74.36-5.62.36-.43,0-1.22.07-1.73.07,0,.43-.07.94-.07.94v.65c0,.86.07,1.51,0,2.3l.14,3.82-.29,3.24c.07,1.01-.22,5.4-.29,6.41,0,1.08-.07,2.23,0,3.31Z"/><path class="cls-14" d="m967.02,478.44c.07-.86-.22-4.03-.22-4.9.07-2.95-.07-6.26.22-9.14,0-.5.07-1.87.07-2.38s-.22-1.44,0-1.94c-.07-1.73.07-5.4,0-5.9-.07-.43-.07-2.74.14-4.25.22-.79-.07-1.73.07-2.52.29-1.44.22-2.88.22-4.39,0-2.02.07-3.89.07-5.9h5.11c-.07,1.15.43,3.1.43,4.25l.43,9.5c-.07,1.3,0,2.74,0,4.18-.07,1.51,0,3.17,0,4.75,0,1.44,0,2.81.5,4.25.5-.5,1.08-1.01,1.66-1.08,1.37-.94,2.95-1.44,4.75-1.44.5,0,1.44-.29,2.38-.29.43,0,.94,0,1.87.5,1.44.36,2.74,1.3,4.1,1.8,2.09,1.51,2.45,2.38,3.74,3.74,1.44,1.8,1.87,3.24,1.87,5.04.43,2.81.43,5.11.43,7.92,0,2.38-.07,4.82-.36,6.48-.07.58,0,.94-.07.94-2.38,0-4.68,0-7.42.5-.14-.58,0-1.51,0-1.94-.07-.65.14-1.58.14-2.74,0-1.73-.14-3.89-.14-5.54,0-1.87,0-3.74-.5-6.05,0-.86-.36-1.87-.36-2.81-.29-.5-.43-1.08-.79-1.22-.29-.14-.72-.5-1.08-.94-.65-.58-2.81-1.08-3.82-.58-.86.43-1.8.94-2.3,1.37-.94.43-1.8,1.87-1.8,3.31-.94,2.3-1.44,5.04-1.44,7.85-.22,1.73-.14,3.31-.14,4.82,0,.86-.22,1.66-.22,2.52v2.81c-1.15,0-2.38.07-3.53.22-.72.07-1.37.22-2.09.5-.5.22-.94.43-1.37.36-.36-.43.07-1.58,0-2.38s0-1.3-.07-1.8c-.14-1.58-.65-6.7-.5-7.49Z"/><path class="cls-14" d="m1021.03,473.83c-.29.29-1.01.36-1.44.36-.65.14-1.8.14-2.45.14-1.3,0-1.66.07-3.17.22l-4.32.36v.86c0,1.08.22,2.09,1.01,3.1.43.72,1.22,1.51,1.87,1.73,0,0,1.44.65,2.09.58,2.59,0,3.31-.65,5.04-1.51.36,0,.86-.58,1.08-.65.43-.14,1.66-1.22,2.09-1.44.29.22.07,1.58.22,2.52,0,0,.07,1.3,0,2.23-1.01,1.08-.58.79-1.8,1.94-.94.94-1.8,1.44-2.74,1.73-1.08.58-2.52.72-3.24,1.01-.79.14-1.8.14-1.8.14-1.8,0-3.53.14-5.4-.79-.65.07-2.23-.58-2.59-1.01-1.01-.58-1.8-1.58-2.74-2.23-1.3-.94-1.73-2.02-2.23-3.17-.5-.86-.86-2.02-1.22-3.02,0-1.01-.07-2.02-.07-2.95v-2.66c0-1.73.86-4.46,1.87-6.19,0,0,.79-.86,1.73-1.8.29-.07.58-.29,1.22-.65.29-.14.72-.79,1.44-1.01,1.08-.36,2.09-.94,2.59-.94.65,0,2.74.14,4.39.22.86.07,1.44.36,1.73.36.72.07,1.22.14,1.8.36,1.73.58,2.38,1.22,2.95,1.87.36.43.72,1.22,1.08,1.66.43.58.94,1.73,1.15,2.66.22.79.29,2.23.29,3.17s-.07,1.22-.07,2.09c0,.22-.14.5-.36.72Zm-5.98-5.98c-.79-1.22-2.45-1.37-3.46-1.15-.65.14-.72.43-1.08,1.01-.14.14-.22.36-.43.58-.14.22-.22.58-.29.86-.14.43-.14.5,0,1.22.72.43,4.97.43,5.69,0,.07-.07-.29-.5-.29-1.44,0-.22,0-.86-.14-1.08Z"/><path class="cls-14" d="m1052.34,462.16c.07-.43.43-.43.43-.43,1.87-1.8,3.74-2.74,6.05-3.24,1.37-.5,2.81-.5,4.1,0,1.01,0,1.44.5,2.38.5,2.3.43,3.67,1.8,5.11,3.6,1.8,2.38,2.3,4.68,3.24,7.49v3.24c-.43,1.87-.43,3.24-.94,4.61-.5,1.44-1.37,2.81-2.81,3.74-.94.94-2.3,1.8-3.67,2.3-1.87.94-3.31,1.44-5.11,1.8h-7.85v1.94c0,2.3,0,4.61-.5,6.98v11.31c0,.86-.43,1.37-1.44,1.37h-4.1c-.5-3.31-.5-6.26-.5-9.5v-13.9c-.43-4.61.22-7.99-.14-12.67,0-.5.07-2.66.07-2.66,0-2.81-.14-3.89.29-6.62,0-.43.22-1.8,0-2.45,0-1.44.14-1.15.36-1.58.5-.07,1.87.36,2.74.43.58-.07,1.44-.14,2.3.07v3.67Zm12.02,4.68s0-.5-.43-.5c-1.01-.86-2.81-1.37-4.18-.43-1.44,1.37-2.38,3.24-2.38,5.11v2.3c0,.86.5,2.3.94,3.24,0,.5.5.5,1.01.94,1.8.43,4.1,0,5.04-2.3.5-1.37.43-2.38.72-4.03-.07-1.66-.22-2.88-.72-4.32Z"/><path class="cls-14" d="m1085.61,468.79c-.14.5-.14.86-.14,1.37,0,.58.14,2.66.14,3.31v1.58c0,.86.07,1.73.07,2.59,0,.65-.14,1.3-.07,1.94,0,.58.14,1.08.14,1.66v6.55c0,.5.29,1.08,0,1.01-.94,0-2.38.36-3.38.36-.86,0-1.37,0-2.38-.5v-.94c-.43-1.8-.43-3.24-.43-4.61,0-1.01-.07-1.94.14-2.88,0-.14,0-.36-.14-.58-.07-.22-.07-1.94-.07-2.23v-3.02c0-1.15-.07-2.3.07-3.46.14-.14.36-3.89.36-4.32.07-1.51,0-3.1.07-4.54,0-2.74-.07-5.4,0-8.06,0-1.73,0-3.38-.07-5.04-.14-1.8.22-1.58.07-3.46,0-.94.14-1.87.14-2.74,0-.94-.07-1.51-.07-2.45l.36-.36c.94,0,2.23.14,3.1.07.79-.07.94-.07,1.73-.07.22,0,.5.14.58.22.22,3.17-.14,6.12-.14,9.5v5.04c-.07,3.46-.29,6.34-.29,9.22,0,1.01.14,2.23.14,3.24.07.22.07,1.22.07,1.58Z"/><path class="cls-14" d="m1118.22,487.51l-.5.07c-.5.07-.43,0-1.15,0-.22.07-2.09.5-2.95.07-.5,0-.5-.14-1.01-.14-.43-.36-.43-1.3-.43-1.8v-1.8l-.58.79-1.3,1.22c-.94.65-1.44,1.08-2.3,1.51-1.44.86-3.24,1.08-4.68,1.08s-3.17-.79-4.39-1.22c-.36-.07-.72-.36-1.01-.58-.58-.5-1.37-1.01-1.87-1.44-.29-.22-.5-.5-.86-.65-.29-.14-.5-.43-.65-.72-.5-1.01-1.37-1.94-1.8-3.31-.29-1.01-.94-2.02-.94-2.88,0-.43-.14-2.02-.14-2.45,0-.86.07-1.15.07-2.09,0-.43.14-.94.36-1.8.14-1.01.22-2.45.43-3.17.65-1.22.79-1.22,1.01-1.94.22-.58.5-1.73,1.15-2.16.5-.36,2.59-2.3,2.88-2.38l1.3-.58c.79-.29,1.8-.43,2.67-.43l2.23-.07c.5,0,1.22,0,1.44.07.43,0,.94.43,1.44.43.43,0,1.3.43,1.8.86.94.36,1.44,1.01,1.87,1.44.43.5.94.86,1.37,1.37.07.29.5.5.5.5.14-.22.14-.86.43-1.37.07-1.37.14-2.59.22-2.95-.07-.36.07-1.37.58-1.22.43-.14,3.02.43,4.32.43.07,0,.07.65,0,.94l.43,6.91v7.78c0,.29-.07.58-.07.86.07.86.07,1.8.07,2.74.07.65,0,1.37,0,2.16,0,1.22.14,4.25.07,5.54v.36Zm-9.29-11.09c0-.58.58-2.66-.5-5.54-.29-.72-.79-1.8-2.02-2.23-.65-.14-1.22-.5-1.87-.43-.65.22-1.87.94-2.52,1.87-.43.5-.5,1.01-.58,1.8-.29,1.22-.43,1.73-.43,2.74,0,1.87,1.58,3.53,1.87,3.96.29.29.43.14.94.65.94.43,1.8,0,2.81-.5h.43c.86-.43,1.37-.86,1.87-1.8.07-.07,0-.5,0-.5Z"/><path class="cls-14" d="m1125.21,460.36c.14-.07,1.01-.07,1.01-.07.5-.07.94,0,1.44-.07h2.16c.14,0,.43.29.5.36l.14.65s.22.79.22,1.73c0,0,.07.79.14.86.36-.36.5-.94.79-1.08.65-.5.36-.29,1.51-1.01.86-.43,1.37-.58,2.88-1.37.58-.29,3.17-.72,4.46-.65,1.01.07,1.51.29,2.66.43.43.07,1.94.14,2.3.36,2.38,1.37,3.74,2.09,4.75,3.67.14.22.65.36,1.08.86.43.5,1.01,1.51,1.01,1.73.36,1.58,1.01,2.38,1.08,3.96.07.72.65,1.73.65,2.66s.22,1.94,0,4.18c0,.65.07,1.22.07,1.8v3.31c0,.65,0,1.22-.07,1.8,0,.79.07,1.22.07,2.02,0,.14,0,.5-.14.58-.14.07-.65.07-.79.07-.86,0-1.58.07-2.45,0l-2.16-.22c-.36-.07-1.3.14-1.44-.22-.07-2.23,0-2.81,0-3.6,0-.5-.14-1.15-.22-2.38l.22-3.82c-.07-2.02-.22-1.51-.22-3.53,0-1.73-.72-3.46-1.58-5.18-.5-.94-1.22-1.73-2.45-2.3-.14-.07-.5-.22-.72-.22l-1.66-.14c-1.58-.07-3.74.79-4.1,1.44-.65,1.15-1.01,1.58-1.37,2.16-.14.5-1.01,3.31-1.01,5.11,0,.65,0,1.3-.07,1.87l-.14,2.02-.43,2.74c0,.94,0,2.16-.07,3.1v1.66c-.22.14-.5.29-.72.29-1.08.14-1.15.43-2.3.36-1.01-.07-3.17.14-4.18,0-1.01-.14-.79-.14-.79-.58,0-.79.14-3.6.14-4.54,0-1.73-.14-2.59-.14-4.32,0-1.44-.07-2.09-.14-3.53,0-.72.14-2.02.14-3.38,0-1.58-.07-3.31-.07-4.1-.07-1.58-.07-3.1.07-4.61,0-.29-.14-.58-.07-.86Z"/><path class="cls-14" d="m1181.73,473.83c-.29.29-1.01.36-1.44.36-.65.14-1.8.14-2.45.14-1.3,0-1.66.07-3.17.22l-4.32.36v.86c0,1.08.22,2.09,1.01,3.1.43.72,1.22,1.51,1.87,1.73,0,0,1.44.65,2.09.58,2.59,0,3.31-.65,5.04-1.51.36,0,.86-.58,1.08-.65.43-.14,1.66-1.22,2.09-1.44.29.22.07,1.58.22,2.52,0,0,.07,1.3,0,2.23-1.01,1.08-.58.79-1.8,1.94-.94.94-1.8,1.44-2.74,1.73-1.08.58-2.52.72-3.24,1.01-.79.14-1.8.14-1.8.14-1.8,0-3.53.14-5.4-.79-.65.07-2.23-.58-2.59-1.01-1.01-.58-1.8-1.58-2.74-2.23-1.3-.94-1.73-2.02-2.23-3.17-.5-.86-.86-2.02-1.22-3.02,0-1.01-.07-2.02-.07-2.95v-2.66c0-1.73.86-4.46,1.87-6.19,0,0,.79-.86,1.73-1.8.29-.07.58-.29,1.22-.65.29-.14.72-.79,1.44-1.01,1.08-.36,2.09-.94,2.59-.94.65,0,2.74.14,4.39.22.86.07,1.44.36,1.73.36.72.07,1.22.14,1.8.36,1.73.58,2.38,1.22,2.95,1.87.36.43.72,1.22,1.08,1.66.43.58.94,1.73,1.15,2.66.22.79.29,2.23.29,3.17s-.07,1.22-.07,2.09c0,.22-.14.5-.36.72Zm-5.98-5.98c-.79-1.22-2.45-1.37-3.46-1.15-.65.14-.72.43-1.08,1.01-.14.14-.22.36-.43.58-.14.22-.22.58-.29.86-.14.43-.14.5,0,1.22.72.43,4.97.43,5.69,0,.07-.07-.29-.5-.29-1.44,0-.22,0-.86-.14-1.08Z"/><path class="cls-14" d="m1203.25,487.29c0,.58,0,1.94-.07,2.52.07.36-.36.79-.5.94h-1.87c-.5,0-1.15-.07-1.66-.07-.72.29-3.1.07-3.38.07q-.43-.5-.43-.94v-6.91l-.14-4.25.14-4.82-.07-4.18-.29-3.46c-1.15,0-3.1.22-3.96,0-1.66-.29-2.3,0-3.6,0v-4.61h.43c.43,0,.86-.07,1.01,0,.5.36,1.73.07,1.66-.07,1.08-.07.94-.07,1.8-.07.79,0,2.66.07,3.17,0,.07,0,0-2.66,0-3.67.22-1.8.22-3.17.29-5.04.07-1.3.07-2.52.07-3.89s.22-3.6.14-5.11c0-.5-.22-.5-.22-.94s0-.72.5-.72c.86,0,1.87.14,2.74.14,1.44,0,2.74,0,3.46.07.65.07,1.15.14,1.66.29.07,0,0,1.94-.07,3.02-.07,2.38-.07,3.89,0,6.26,0,1.08-.07,2.23,0,3.31,0,.58-.29,4.39-.36,4.97,0,.5.29.94.43.94.5,0,1.37.22,1.87.22.43,0,.94.22,1.87.22.86,0,1.8.07,2.81.07.43,0,.86.07.86.07.43,1.44.43,3.6,0,4.54h-.43c-1.87.22-3.74.36-5.62.36-.43,0-1.22.07-1.73.07,0,.43-.07.94-.07.94v.65c0,.86.07,1.51,0,2.3l.14,3.82-.29,3.24c.07,1.01-.22,5.4-.29,6.41,0,1.08-.07,2.23,0,3.31Z"/><path class="cls-14" d="m661.89,528.33c1.44-.5,3.24-.5,4.68-.5h2.81v3.74c-.5,0-.94.07-.94.07-.43,0-.5.29-1.01.29-1.37.5-2.3,1.01-3.24,1.44-.43.5-.86.94-1.37,1.87-.43.94-.94,1.87-.94,2.74,0,1.44-.5,3.24-.5,4.68s-.36,2.3-.36,3.74v.86l.94.14c.29,0,1.3.29,2.23.29.86,0,1.87.07,2.02.07h1.22c0,.94.07,1.15,0,2.02,0,.29-.14.94-.22,1.3-.07.22,0,0-.14.5-.07.07-.43-.07-1.22,0-.29,0-1.22.43-2.09.36-.36,0-.94.14-1.3.22-.58.07-1.01.22-1.58.22-.22,1.94-.58,5.26-.65,7.2-.07,1.22.29,2.3.07,3.38,0,.29.14.58,0,.79-.22,1.22,0,7.92,0,7.06.14.43.22,1.3.22,1.8.07,1.15,0,2.59,0,2.81,0,0-.43.43-.94.43s-1.37.14-1.8.14c-.5,0-1.44.22-1.94.22-.86,0-2.45.29-3.38.29,0-.94-.29-1.3-.14-2.23,0-.14-.14-4.25-.14-4.39-.14-.94-.07-2.88-.07-4.68,0-1.22.07-3.6.14-5.26,0-.79.07-2.95.14-3.82.07-1.01-.22-1.87-.22-2.81v-.94c-1.3-.14-3.17-.29-4.39,0-.22-.14-.29-.29-.36-.43,0-.94.07-1.87.07-2.74v-1.01q.5-.43,1.01-.43c.94,0,2.81-.07,3.74,0,.72.07,0-.5.43-1.01,0-1.37.14-1.44.14-2.88,0-2.09.29-3.89.29-5.91,0-.65.22-.94.29-1.37.07-.58.14-1.01.29-1.58l1.08-2.3c.72-1.37,1.51-1.94,2.16-2.66.86-1.01,1.15-.94,1.3-.94.22,0,.58-.29,1.22-.5.72-.22,1.73-.36,1.94-.29h.5Z"/><path class="cls-14" d="m670.6,559.51c.07-.86.07-1.73.07-2.66l-.22-5.83v-3.24c1.01,0,2.16-.07,3.6.07,0,0,1.08.07,1.58.07.65.14.43.07.72.22,0,.43-.14.58-.14,1.08v2.3c.36-.5.36-.72.86-1.22l.43-.14c1.22-1.22,3.24-1.51,5.04-1.37.36,0,1.37.36,2.23.86.79.14,1.08.5,1.08.5.94.86,1.94,1.37,2.3,2.3.94,1.37,1.44,2.88,1.94,4.68,0,.5,0,.94-.5.94-1.44.5-2.38.29-4.39.43h-.79c-.14-.07-.22-.36-.22-.43-.07-.58-.29-1.01-.29-1.3,0-.5-.43-1.08-.43-1.08-.94-.94-1.73-1.37-2.66-1.37-.22,0-.58,0-.86.14-.43.14-1.66.72-1.94,1.01-.5.5-1.08,1.01-1.37,1.66-.07.36-.14,1.58-.14,1.8-.14.86-.43,2.59-.43,3.6,0,.65-.22,1.87-.22,2.74,0,.65-.07,1.22-.07,1.8v2.74c0,.58-.07,1.3-.07,1.94v1.58c-2.38.5-4.03.5-4.97,0-.22-.65-.29-1.94-.22-2.16.22-1.73,0-3.46,0-5.26-.07-.94.07-2.09.07-2.95,0-.65.07-2.23,0-3.46Z"/><path class="cls-14" d="m702.93,545.32c1.22,0,2.23-.07,3.46-.07.94,0,1.87,0,2.66.29.14,0,.5.07.94.5,1.94.5,3.46,3.02,4.39,4.9.5.79.5,2.23.79,3.02,0,1.37.22,2.59.22,3.89,0,2.16-.14,4.1-.14,6.34l-.14,2.38c0,.36-.58,1.66-.65,2.09-.29.94-.86,2.59-1.08,2.81-.94.94-.5,1.58-1.66,2.16-.43.22-1.22.72-1.8,1.08-.43.22-.22.29-.86.5l-1.3.29c-1.15.22-1.73,0-2.59,0-1.3,0-2.74-.29-4.03-.79-.86,0-1.8-.5-2.16-.94-.43-.36-.94-.79-1.44-1.3-.79-.86-1.22-1.73-1.66-2.66-.43-1.08-1.15-2.16-1.37-3.46-.22-2.16-.36-3.96-.36-5.76v-2.95c-.07-.14-.07-1.01,0-1.15,0-.5.07-1.01.14-1.51.07-.79-.07-1.58.43-2.3-.14.29,1.08-2.45,1.01-2.23l.5-.94c.65-.65.86-1.3,4.03-3.46.65-.22,1.73-.72,2.66-.72Zm1.73,13.47c-.36.79-.5,1.37-.5,1.8,0,1.37.5,2.16,1.37,2.59.43,0,.86-.43.86-.79,0-.94.5-2.23,0-3.6-.43-.43-.43-.79-.86-.79-.36,0-.79.5-.86.79Z"/><path class="cls-14" d="m759.38,571.32c.22-2.23,0-4.03,0-5.33-.29-1.15-.36-2.38-.5-3.46-.43-1.37-.43-2.81-.94-4.1,0-1.44-.5-2.81-1.8-3.74-1.01-.5-1.87-.94-2.81-.94-.43.29-1.94,1.01-2.38,2.02-.5,1.15-.79,2.09-1.15,2.66-.58.94-.43,2.45-.5,3.53,0,.43-.43,3.31-.43,3.74l-.58,4.18c0,.65-.07,1.3-.07,1.94,0,.5-.14.94-.14,1.44h-.43c-1.15.14-2.38.22-4.1,0-.43-.07-.86,0-.86-.94,0-1.15-.07-2.09-.07-3.1.07-1.44.14-2.88-.14-4.61,0-1.22-.43-2.81-.58-4.1-.14-1.22,0-2.59-.5-3.67-.29-.94-.58-1.73-1.08-2.66-.07-.14-.22-.22-.29-.29l-.5-.22c-.58-.36-1.22-.58-1.94-.72h-.29l-1.58.22c-.94.14-1.66.43-2.3,1.01-1.44,1.44-2.3,3.24-2.74,5.54-.58.86-.58,1.8-.72,2.66-.14,1.01-.22,2.16-.29,3.24,0,.79-.36,1.58-.22,2.23,0,.43-.14,3.1-.22,3.46-.14.36-.07,1.94-.22,2.16-.5,0-1.15.22-1.8.36-.58.14-1.44,0-2.09-.14-1.44-.29-1.87-.14-2.88-.43.07-1.08-.43-4.1-.36-5.11.07-.5-.29-3.31-.29-3.82-.07-.94-.07-1.66-.07-2.59.07-.94.07-1.8.07-2.66v-5.98c0-.5.14-5.54.22-6.05.5,0,1.37-.14,1.87-.14.94,0,1.73-.07,2.59-.07.94,0,.65-.07,1.01,0,.29.86.14.86.29,1.51.07.5.29,1.3.29,1.73v.36c.86-.86,1.8-1.3,2.3-1.8,1.3-1.08,2.74-1.3,4.54-1.58l3.24-.36h.5c1.44.29,2.52.58,3.74,1.3l1.8,1.58c.22.14.43.29.58.5.43.36.94.86,1.3,1.8.5-.43.86-.86,1.3-1.37.22-.22.58-.36,1.01-.58.72-.43,1.01-.79,1.73-1.15.5-.22,1.15-.36,1.66-.65,2.3-.94,4.1,0,5.9.5,1.44.5,2.38,1.44,3.31,2.81l1.37,2.74c.5,1.44,1.01,2.81,1.01,4.25.36,1.8.86,3.6.86,5.9.43,1.44,0,3.31.43,4.68v3.74c-.94,0-1.3.5-2.3.5-.43,0-1.37.22-1.87.36-.43,0-.86,0-.86-.36v-1.94Z"/><path class="cls-14" d="m814.75,573.91l-.5.07c-.5.07-.43,0-1.15,0-.22.07-2.09.5-2.95.07-.5,0-.5-.14-1.01-.14-.43-.36-.43-1.3-.43-1.8v-1.8l-.58.79-1.3,1.22c-.94.65-1.44,1.08-2.3,1.51-1.44.86-3.24,1.08-4.68,1.08s-3.17-.79-4.39-1.22c-.36-.07-.72-.36-1.01-.58-.58-.5-1.37-1.01-1.87-1.44-.29-.22-.5-.5-.86-.65-.29-.14-.5-.43-.65-.72-.5-1.01-1.37-1.94-1.8-3.31-.29-1.01-.94-2.02-.94-2.88,0-.43-.14-2.02-.14-2.45,0-.86.07-1.15.07-2.09,0-.43.14-.94.36-1.8.14-1.01.22-2.45.43-3.17.65-1.22.79-1.22,1.01-1.94.22-.58.5-1.73,1.15-2.16.5-.36,2.59-2.3,2.88-2.38l1.3-.58c.79-.29,1.8-.43,2.66-.43l2.23-.07c.5,0,1.22,0,1.44.07.43,0,.94.43,1.44.43.43,0,1.3.43,1.8.86.94.36,1.44,1.01,1.87,1.44.43.5.94.86,1.37,1.37.07.29.5.5.5.5.14-.22.14-.86.43-1.37.07-1.37.14-2.59.22-2.95-.07-.36.07-1.37.58-1.22.43-.14,3.02.43,4.32.43.07,0,.07.65,0,.94l.43,6.91v7.78c0,.29-.07.58-.07.86.07.86.07,1.8.07,2.74.07.65,0,1.37,0,2.16,0,1.22.14,4.25.07,5.54v.36Zm-9.29-11.09c0-.58.58-2.66-.5-5.54-.29-.72-.79-1.8-2.02-2.23-.65-.14-1.22-.5-1.87-.43-.65.22-1.87.94-2.52,1.87-.43.5-.5,1.01-.58,1.8-.29,1.22-.43,1.73-.43,2.74,0,1.87,1.58,3.53,1.87,3.96.29.29.43.14.94.65.94.43,1.8,0,2.81-.5h.43c.86-.43,1.37-.86,1.87-1.8.07-.07,0-.5,0-.5Z"/><path class="cls-14" d="m820.72,559.51c.07-.86.07-1.73.07-2.66l-.22-5.83v-3.24c1.01,0,2.16-.07,3.6.07,0,0,1.08.07,1.58.07.65.14.43.07.72.22,0,.43-.14.58-.14,1.08v2.3c.36-.5.36-.72.86-1.22l.43-.14c1.22-1.22,3.24-1.51,5.04-1.37.36,0,1.37.36,2.23.86.79.14,1.08.5,1.08.5.94.86,1.94,1.37,2.3,2.3.94,1.37,1.44,2.88,1.94,4.68,0,.5,0,.94-.5.94-1.44.5-2.38.29-4.39.43h-.79c-.14-.07-.22-.36-.22-.43-.07-.58-.29-1.01-.29-1.3,0-.5-.43-1.08-.43-1.08-.94-.94-1.73-1.37-2.66-1.37-.22,0-.58,0-.86.14-.43.14-1.66.72-1.94,1.01-.5.5-1.08,1.01-1.37,1.66-.07.36-.14,1.58-.14,1.8-.14.86-.43,2.59-.43,3.6,0,.65-.22,1.87-.22,2.74,0,.65-.07,1.22-.07,1.8v2.74c0,.58-.07,1.3-.07,1.94v1.58c-2.38.5-4.03.5-4.97,0-.22-.65-.29-1.94-.22-2.16.22-1.73,0-3.46,0-5.26-.07-.94.07-2.09.07-2.95,0-.65.07-2.23,0-3.46Z"/><path class="cls-14" d="m883.15,571.32c.22-2.23,0-4.03,0-5.33-.29-1.15-.36-2.38-.5-3.46-.43-1.37-.43-2.81-.94-4.1,0-1.44-.5-2.81-1.8-3.74-1.01-.5-1.87-.94-2.81-.94-.43.29-1.94,1.01-2.38,2.02-.5,1.15-.79,2.09-1.15,2.66-.58.94-.43,2.45-.5,3.53,0,.43-.43,3.31-.43,3.74l-.58,4.18c0,.65-.07,1.3-.07,1.94,0,.5-.14.94-.14,1.44h-.43c-1.15.14-2.38.22-4.1,0-.43-.07-.86,0-.86-.94,0-1.15-.07-2.09-.07-3.1.07-1.44.14-2.88-.14-4.61,0-1.22-.43-2.81-.58-4.1-.14-1.22,0-2.59-.5-3.67-.29-.94-.58-1.73-1.08-2.66-.07-.14-.22-.22-.29-.29l-.5-.22c-.58-.36-1.22-.58-1.94-.72h-.29l-1.58.22c-.94.14-1.66.43-2.3,1.01-1.44,1.44-2.3,3.24-2.74,5.54-.58.86-.58,1.8-.72,2.66-.14,1.01-.22,2.16-.29,3.24,0,.79-.36,1.58-.22,2.23,0,.43-.14,3.1-.22,3.46-.14.36-.07,1.94-.22,2.16-.5,0-1.15.22-1.8.36-.58.14-1.44,0-2.09-.14-1.44-.29-1.87-.14-2.88-.43.07-1.08-.43-4.1-.36-5.11.07-.5-.29-3.31-.29-3.82-.07-.94-.07-1.66-.07-2.59.07-.94.07-1.8.07-2.66v-5.98c0-.5.14-5.54.22-6.05.5,0,1.37-.14,1.87-.14.94,0,1.73-.07,2.59-.07.94,0,.65-.07,1.01,0,.29.86.14.86.29,1.51.07.5.29,1.3.29,1.73v.36c.86-.86,1.8-1.3,2.3-1.8,1.3-1.08,2.74-1.3,4.54-1.58l3.24-.36h.5c1.44.29,2.52.58,3.74,1.3l1.8,1.58c.22.14.43.29.58.5.43.36.94.86,1.3,1.8.5-.43.86-.86,1.3-1.37.22-.22.58-.36,1.01-.58.72-.43,1.01-.79,1.73-1.15.5-.22,1.15-.36,1.66-.65,2.3-.94,4.1,0,5.9.5,1.44.5,2.38,1.44,3.31,2.81l1.37,2.74c.5,1.44,1.01,2.81,1.01,4.25.36,1.8.86,3.6.86,5.9.43,1.44,0,3.31.43,4.68v3.74c-.94,0-1.3.5-2.3.5-.43,0-1.37.22-1.87.36-.43,0-.86,0-.86-.36v-1.94Z"/><path class="cls-14" d="m920.52,573.91l-.5.07c-.5.07-.43,0-1.15,0-.22.07-2.09.5-2.95.07-.5,0-.5-.14-1.01-.14-.43-.36-.43-1.3-.43-1.8v-1.8l-.58.79-1.3,1.22c-.94.65-1.44,1.08-2.3,1.51-1.44.86-3.24,1.08-4.68,1.08s-3.17-.79-4.39-1.22c-.36-.07-.72-.36-1.01-.58-.58-.5-1.37-1.01-1.87-1.44-.29-.22-.5-.5-.86-.65-.29-.14-.5-.43-.65-.72-.5-1.01-1.37-1.94-1.8-3.31-.29-1.01-.94-2.02-.94-2.88,0-.43-.14-2.02-.14-2.45,0-.86.07-1.15.07-2.09,0-.43.14-.94.36-1.8.14-1.01.22-2.45.43-3.17.65-1.22.79-1.22,1.01-1.94.22-.58.5-1.73,1.15-2.16.5-.36,2.59-2.3,2.88-2.38l1.3-.58c.79-.29,1.8-.43,2.67-.43l2.23-.07c.5,0,1.22,0,1.44.07.43,0,.94.43,1.44.43.43,0,1.3.43,1.8.86.94.36,1.44,1.01,1.87,1.44.43.5.94.86,1.37,1.37.07.29.5.5.5.5.14-.22.14-.86.43-1.37.07-1.37.14-2.59.22-2.95-.07-.36.07-1.37.58-1.22.43-.14,3.02.43,4.32.43.07,0,.07.65,0,.94l.43,6.91v7.78c0,.29-.07.58-.07.86.07.86.07,1.8.07,2.74.07.65,0,1.37,0,2.16,0,1.22.14,4.25.07,5.54v.36Zm-9.29-11.09c0-.58.58-2.66-.5-5.54-.29-.72-.79-1.8-2.02-2.23-.65-.14-1.22-.5-1.87-.43-.65.22-1.87.94-2.52,1.87-.43.5-.5,1.01-.58,1.8-.29,1.22-.43,1.73-.43,2.74,0,1.87,1.58,3.53,1.87,3.96.29.29.43.14.94.65.94.43,1.8,0,2.81-.5h.43c.86-.43,1.37-.86,1.87-1.8.07-.07,0-.5,0-.5Z"/><path class="cls-14" d="m927.07,552.02c.22-.43.22-.72.65-1.37.36-.5,1.15-1.3,1.37-1.58.14-.22.36-.5.65-.79.36-.43,1.37-.94,1.8-1.44,1.37-.36,2.3-.86,3.24-.86,1.87,0,3.74,0,5.11.5,1.44,0,2.3.36,3.24.86.5.94,1.37,1.44,1.87,1.87l.43.43c.65-.5.36-1.08.58-1.58.22-.58.14-1.08.29-1.22.29-.07.72,0,1.08,0,.86,0,2.52-.14,3.17,0,.22.07.43.43.43.5v.5c.07,1.15.07,3.82,0,4.9-.07.86-.14,5.47,0,5.69,0,.94-.14,2.38-.07,2.81l.07,2.3c.07.65-.22,2.23,0,4.03.14,1.37-.22,5.69-.14,6.7,0,1.8-.86,3.74-1.3,5.54-.5.94-.86,1.8-1.8,2.81-.36.43-.86,1.3-1.37,1.8-.5.65-2.02,1.58-2.52,2.3-.43.58-1.94,1.01-2.45,1.08l-2.52.86c-.86.5-1.66.86-3.02.94-.22,0-.43-.07-.58,0-.94,0-1.44.36-2.38.36h-.43c-1.37,0-1.22-.14-2.88,0-.07,0-.79.22-.79,0,0-1.8-.22-3.31-.22-4.75l.5-.43h2.45c1.37-.5,2.3-.36,3.74-.86,1.37-.86,2.3-1.8,3.67-2.3.94-.86,1.87-1.8,2.38-2.74.86-.86.86-1.87,1.37-2.81,0-.86.43-1.8.43-2.74v-1.87c0-.43-.43,0-.43,0-1.37.86-3.31.86-5.11.86h-.5c-.65-.07-1.3-.22-1.94-.43-1.22-.29-1.94-.5-3.02-1.08-.29-.14-.79-.29-2.09-1.08l-.86-1.01-1.58-1.73c-.29-.5-.5-1.22-.86-2.3-.22-.58-.58-1.22-.72-2.02v-6.05c0-.5.36-1.51.36-1.87,0,0,.14-.43.14-.94,0-.14.5-1.73.58-1.8Zm11.88,9.22c.22-.36.07-.94.22-1.08.5-.72.22-.72.22-1.22s-.43-1.37-.86-1.8q-.43-.5-1.44,0c-.43.43-.5,1.08-.5,2.09,0,.22-.14,1.01.07,1.58,0,.22.65.94.94.94.5,0,.94,0,1.37-.5Z"/><path class="cls-14" d="m978.26,560.23c-.29.29-1.01.36-1.44.36-.65.14-1.8.14-2.45.14-1.3,0-1.66.07-3.17.22l-4.32.36v.86c0,1.08.22,2.09,1.01,3.1.43.72,1.22,1.51,1.87,1.73,0,0,1.44.65,2.09.58,2.59,0,3.31-.65,5.04-1.51.36,0,.86-.58,1.08-.65.43-.14,1.66-1.22,2.09-1.44.29.22.07,1.58.22,2.52,0,0,.07,1.3,0,2.23-1.01,1.08-.58.79-1.8,1.94-.94.94-1.8,1.44-2.74,1.73-1.08.58-2.52.72-3.24,1.01-.79.14-1.8.14-1.8.14-1.8,0-3.53.14-5.4-.79-.65.07-2.23-.58-2.59-1.01-1.01-.58-1.8-1.58-2.74-2.23-1.3-.94-1.73-2.02-2.23-3.17-.5-.86-.86-2.02-1.22-3.02,0-1.01-.07-2.02-.07-2.95v-2.66c0-1.73.86-4.46,1.87-6.19,0,0,.79-.86,1.73-1.8.29-.07.58-.29,1.22-.65.29-.14.72-.79,1.44-1.01,1.08-.36,2.09-.94,2.59-.94.65,0,2.74.14,4.39.22.86.07,1.44.36,1.73.36.72.07,1.22.14,1.8.36,1.73.58,2.38,1.22,2.95,1.87.36.43.72,1.22,1.08,1.66.43.58.94,1.73,1.15,2.66.22.79.29,2.23.29,3.17s-.07,1.22-.07,2.09c0,.22-.14.5-.36.72Zm-5.98-5.98c-.79-1.22-2.45-1.37-3.46-1.15-.65.14-.72.43-1.08,1.01-.14.14-.22.36-.43.58-.14.22-.22.58-.29.86-.14.43-.14.5,0,1.22.72.43,4.97.43,5.69,0,.07-.07-.29-.5-.29-1.44,0-.22,0-.86-.14-1.08Z"/><path class="cls-14" d="m1006.27,538.77c-.14-1.44.14-2.95.07-4.39,0-.58.07-1.22.07-1.8.5-2.3.29-4.61.72-7.49v-.86c1.87.5,3.53.86,5.33.86-.5,1.44-.5,2.88-.5,4.25,0,2.74-.36,5.54-.36,8.28,0,.58-.14,1.22-.14,1.8.14,1.44-.14,4.97.22,6.48-.29,2.3,0,4.68-.07,6.98-.14,1.58,0,3.1,0,4.68s.07,3.24.07,4.9-.43,4.18-.36,5.83c0,2.3-.22,3.89-.22,5.76,0,.86-.5,1.01-1.51,1.01-1.37.14-2.23,0-3.6,0-.94,0-.94-.5-.94-.86v-1.3s-.22-.43-.43-.5c-.5.5-1.44.5-2.3,1.01-1.44.94-3.24,1.3-5.18,1.3-1.37,0-2.3,0-3.17-.36-.5,0-.5-.5-.94-.5-1.87-.94-3.24-1.87-4.61-3.24-1.44-1.44-1.94-2.81-2.88-4.68-.36-1.37-.36-2.81-.86-4.1,0-1.94,0-3.75.86-5.11.5-2.38,1.94-4.18,3.74-5.54.94-.94,2.3-1.44,3.74-1.94.94,0,2.3,0,3.24-.43,1.37,0,2.3,0,3.74.43.36.5,1.37.5,1.8,1.01.86.43,1.87.94,2.81,1.3.43-.36.22-1.3.72-2.3,0-.43.22-1.3.22-2.3.07-2.3.43-5.83.72-8.14Zm-9.14,16.99c-1.8.94-2.74,3.24-2.74,5.04,0,1.01.43,1.44.43,2.3,0,1.44.94,2.3,2.3,3.31.5.43,1.44.43,2.38,0,.86-1.01,2.3-1.87,2.3-3.67.5-1.94,0-3.24-.43-4.68-.5-1.37-1.87-2.3-3.31-2.3h-.94Z"/><path class="cls-14" d="m1038.38,538.77c-.14-1.44.14-2.95.07-4.39,0-.58.07-1.22.07-1.8.5-2.3.29-4.61.72-7.49v-.86c1.87.5,3.53.86,5.33.86-.5,1.44-.5,2.88-.5,4.25,0,2.74-.36,5.54-.36,8.28,0,.58-.14,1.22-.14,1.8.14,1.44-.14,4.97.22,6.48-.29,2.3,0,4.68-.07,6.98-.14,1.58,0,3.1,0,4.68s.07,3.24.07,4.9-.43,4.18-.36,5.83c0,2.3-.22,3.89-.22,5.76,0,.86-.5,1.01-1.51,1.01-1.37.14-2.23,0-3.6,0-.94,0-.94-.5-.94-.86v-1.3s-.22-.43-.43-.5c-.5.5-1.44.5-2.3,1.01-1.44.94-3.24,1.3-5.18,1.3-1.37,0-2.3,0-3.17-.36-.5,0-.5-.5-.94-.5-1.87-.94-3.24-1.87-4.61-3.24-1.44-1.44-1.94-2.81-2.88-4.68-.36-1.37-.36-2.81-.86-4.1,0-1.94,0-3.75.86-5.11.5-2.38,1.94-4.18,3.74-5.54.94-.94,2.3-1.44,3.74-1.94.94,0,2.3,0,3.24-.43,1.37,0,2.3,0,3.74.43.36.5,1.37.5,1.8,1.01.86.43,1.87.94,2.81,1.3.43-.36.22-1.3.72-2.3,0-.43.22-1.3.22-2.3.07-2.3.43-5.83.72-8.14Zm-9.14,16.99c-1.8.94-2.74,3.24-2.74,5.04,0,1.01.43,1.44.43,2.3,0,1.44.94,2.3,2.3,3.31.5.43,1.44.43,2.38,0,.86-1.01,2.3-1.87,2.3-3.67.5-1.94,0-3.24-.43-4.68-.5-1.37-1.87-2.3-3.31-2.3h-.94Z"/><path class="cls-14" d="m1058.11,545.32c1.22,0,2.23-.07,3.46-.07.94,0,1.87,0,2.66.29.14,0,.5.07.94.5,1.94.5,3.46,3.02,4.39,4.9.5.79.5,2.23.79,3.02,0,1.37.22,2.59.22,3.89,0,2.16-.14,4.1-.14,6.34l-.14,2.38c0,.36-.58,1.66-.65,2.09-.29.94-.86,2.59-1.08,2.81-.94.94-.5,1.58-1.66,2.16-.43.22-1.22.72-1.8,1.08-.43.22-.22.29-.86.5l-1.3.29c-1.15.22-1.73,0-2.59,0-1.3,0-2.74-.29-4.03-.79-.86,0-1.8-.5-2.16-.94-.43-.36-.94-.79-1.44-1.3-.79-.86-1.22-1.73-1.66-2.66-.43-1.08-1.15-2.16-1.37-3.46-.22-2.16-.36-3.96-.36-5.76v-2.95c-.07-.14-.07-1.01,0-1.15,0-.5.07-1.01.14-1.51.07-.79-.07-1.58.43-2.3-.14.29,1.08-2.45,1.01-2.23l.5-.94c.65-.65.86-1.3,4.03-3.46.65-.22,1.73-.72,2.66-.72Zm1.73,13.47c-.36.79-.5,1.37-.5,1.8,0,1.37.5,2.16,1.37,2.59.43,0,.86-.43.86-.79,0-.94.5-2.23,0-3.6-.43-.43-.43-.79-.86-.79-.36,0-.79.5-.86.79Z"/><path class="cls-14" d="m1076.75,546.76c.14-.07,1.01-.07,1.01-.07.5-.07.94,0,1.44-.07h2.16c.14,0,.43.29.5.36l.14.65s.22.79.22,1.73c0,0,.07.79.14.86.36-.36.5-.94.79-1.08.65-.5.36-.29,1.51-1.01.86-.43,1.37-.58,2.88-1.37.58-.29,3.17-.72,4.46-.65,1.01.07,1.51.29,2.66.43.43.07,1.94.14,2.3.36,2.38,1.37,3.74,2.09,4.75,3.67.14.22.65.36,1.08.86.43.5,1.01,1.51,1.01,1.73.36,1.58,1.01,2.38,1.08,3.96.07.72.65,1.73.65,2.66s.22,1.94,0,4.18c0,.65.07,1.22.07,1.8v3.31c0,.65,0,1.22-.07,1.8,0,.79.07,1.22.07,2.02,0,.14,0,.5-.14.58-.14.07-.65.07-.79.07-.86,0-1.58.07-2.45,0l-2.16-.22c-.36-.07-1.3.14-1.44-.22-.07-2.23,0-2.81,0-3.6,0-.5-.14-1.15-.22-2.38l.22-3.82c-.07-2.02-.22-1.51-.22-3.53,0-1.73-.72-3.46-1.58-5.18-.5-.94-1.22-1.73-2.45-2.3-.14-.07-.5-.22-.72-.22l-1.66-.14c-1.58-.07-3.74.79-4.1,1.44-.65,1.15-1.01,1.58-1.37,2.16-.14.5-1.01,3.31-1.01,5.11,0,.65,0,1.3-.07,1.87l-.14,2.02-.43,2.74c0,.94,0,2.16-.07,3.1v1.66c-.22.14-.5.29-.72.29-1.08.14-1.15.43-2.3.36-1.01-.07-3.17.14-4.18,0-1.01-.14-.79-.14-.79-.58,0-.79.14-3.6.14-4.54,0-1.73-.14-2.59-.14-4.32,0-1.44-.07-2.09-.14-3.53,0-.72.14-2.02.14-3.38,0-1.58-.07-3.31-.07-4.1-.07-1.58-.07-3.1.07-4.61,0-.29-.14-.58-.07-.86Z"/><path class="cls-14" d="m1112.68,573.55c.65-.07,1.44-.22,2.09-.22.94,0,1.87.07,2.81,0,.65-.07,1.3-.07,2.02,0,.22,0,.43.07.58.14l.14.29c.07,1.73.07,3.46.07,5.11,0,.86-.29,1.66-.86,2.3-.79.94-1.51,1.94-2.59,2.59l-2.95,1.8c-.07.07-.22.07-.36.07-.22-.07-.58-.86-.86-1.3-.29-.36-.5-.58-.5-.79s.79-.72,1.15-1.15c.29-.36.72-.72.94-1.08.29-.43.72-.86.94-1.37.07-.14,0-.29,0-.43-.14-.07-.5,0-.72,0-.65,0-1.08-.07-1.66.07-.14,0-.36,0-.43-.14-.07-.29,0-.72,0-1.37,0-.22-.14-.58-.07-1.15.07-.72,0-2.3-.07-3.17,0,0,0-.07.07-.14.07-.07.14-.07.29-.07Z"/><path class="cls-14" d="m1155.38,554.25c-1.37,1.37-1.8,3.1-1.8,5.26v1.8c.43.94.43,2.23,1.37,3.1.43.86,1.3,1.73,2.09,2.74.5.29,1.44.29,1.87.79,1.22.43,3.02.43,4.39.43.65-.07,1.15-.43,2.59-.43.5-.14.72.5,1.01,1.22.29.5.58,1.3.79,1.87.22.36.5.65.5,1.22-.14.07-.5.43-.86.58-.14.43-1.08.5-1.44.86-1.73.86-3.53,1.3-5.26,1.3-.86,0-1.51.07-2.66,0-.43,0-1.08-.14-1.73-.36-.58,0-2.02,0-2.59-.07-.5-.07-.86-.43-1.37-.65-.43-.22-.94-.36-1.44-.58-1.01-.43-1.8-1.66-2.74-2.52-.86-.79-2.16-2.3-2.3-3.17-.36-1.08-1.22-2.38-1.3-3.67-.14-.58-.14-.94-.14-1.3v-3.17c0-2.16,0-3.89.86-5.62.5-.94.79-2.23,1.73-3.17,0-.43.5-.94.94-1.22l1.22-1.37c1.01-.5,1.44-.86,2.23-1.37,1.3-.43,2.66-.86,3.6-.86,1.51-.29,2.3-.72,3.89-.14.86.07,1.87.22,2.59.58.72.14,1.01.22,1.58.43.94.14,1.94.79,2.66,1.22l.5.14c.07,0,0,.86-.14,1.66-.14.5-.14.94-.14,1.87v1.3c0,.43-.36.43-.36.43-.5,0-.86-.22-1.3-.22-.65-.22-1.8-.65-2.45-.65-1.22,0-2.3-.07-3.46.22-1.15.22-2.09.43-2.95,1.51Z"/><path class="cls-14" d="m1181.73,545.32c1.22,0,2.23-.07,3.46-.07.94,0,1.87,0,2.66.29.14,0,.5.07.94.5,1.94.5,3.46,3.02,4.39,4.9.5.79.5,2.23.79,3.02,0,1.37.22,2.59.22,3.89,0,2.16-.14,4.1-.14,6.34l-.14,2.38c0,.36-.58,1.66-.65,2.09-.29.94-.86,2.59-1.08,2.81-.94.94-.5,1.58-1.66,2.16-.43.22-1.22.72-1.8,1.08-.43.22-.22.29-.86.5l-1.3.29c-1.15.22-1.73,0-2.59,0-1.3,0-2.74-.29-4.03-.79-.86,0-1.8-.5-2.16-.94-.43-.36-.94-.79-1.44-1.3-.79-.86-1.22-1.73-1.66-2.66-.43-1.08-1.15-2.16-1.37-3.46-.22-2.16-.36-3.96-.36-5.76v-2.95c-.07-.14-.07-1.01,0-1.15,0-.5.07-1.01.14-1.51.07-.79-.07-1.58.43-2.3-.14.29,1.08-2.45,1.01-2.23l.5-.94c.65-.65.86-1.3,4.03-3.46.65-.22,1.73-.72,2.66-.72Zm1.73,13.47c-.36.79-.5,1.37-.5,1.8,0,1.37.5,2.16,1.37,2.59.43,0,.86-.43.86-.79,0-.94.5-2.23,0-3.6-.43-.43-.43-.79-.86-.79-.36,0-.79.5-.86.79Z"/><path class="cls-14" d="m1200.37,546.76c.14-.07,1.01-.07,1.01-.07.5-.07.94,0,1.44-.07h2.16c.14,0,.43.29.5.36l.14.65s.22.79.22,1.73c0,0,.07.79.14.86.36-.36.5-.94.79-1.08.65-.5.36-.29,1.51-1.01.86-.43,1.37-.58,2.88-1.37.58-.29,3.17-.72,4.46-.65,1.01.07,1.51.29,2.66.43.43.07,1.94.14,2.3.36,2.38,1.37,3.74,2.09,4.75,3.67.14.22.65.36,1.08.86.43.5,1.01,1.51,1.01,1.73.36,1.58,1.01,2.38,1.08,3.96.07.72.65,1.73.65,2.66s.22,1.94,0,4.18c0,.65.07,1.22.07,1.8v3.31c0,.65,0,1.22-.07,1.8,0,.79.07,1.22.07,2.02,0,.14,0,.5-.14.58-.14.07-.65.07-.79.07-.86,0-1.58.07-2.45,0l-2.16-.22c-.36-.07-1.3.14-1.44-.22-.07-2.23,0-2.81,0-3.6,0-.5-.14-1.15-.22-2.38l.22-3.82c-.07-2.02-.22-1.51-.22-3.53,0-1.73-.72-3.46-1.58-5.18-.5-.94-1.22-1.73-2.45-2.3-.14-.07-.5-.22-.72-.22l-1.66-.14c-1.58-.07-3.74.79-4.1,1.44-.65,1.15-1.01,1.58-1.37,2.16-.14.5-1.01,3.31-1.01,5.11,0,.65,0,1.3-.07,1.87l-.14,2.02-.43,2.74c0,.94,0,2.16-.07,3.1v1.66c-.22.14-.5.29-.72.29-1.08.14-1.15.43-2.3.36-1.01-.07-3.17.14-4.18,0-1.01-.14-.79-.14-.79-.58,0-.79.14-3.6.14-4.54,0-1.73-.14-2.59-.14-4.32,0-1.44-.07-2.09-.14-3.53,0-.72.14-2.02.14-3.38,0-1.58-.07-3.31-.07-4.1-.07-1.58-.07-3.1.07-4.61,0-.29-.14-.58-.07-.86Z"/><path class="cls-14" d="m1236.16,552.02c.22-.43.22-.72.65-1.37.36-.5,1.15-1.3,1.37-1.58.14-.22.36-.5.65-.79.36-.43,1.37-.94,1.8-1.44,1.37-.36,2.3-.86,3.24-.86,1.87,0,3.74,0,5.11.5,1.44,0,2.3.36,3.24.86.5.94,1.37,1.44,1.87,1.87l.43.43c.65-.5.36-1.08.58-1.58.22-.58.14-1.08.29-1.22.29-.07.72,0,1.08,0,.86,0,2.52-.14,3.17,0,.22.07.43.43.43.5v.5c.07,1.15.07,3.82,0,4.9-.07.86-.14,5.47,0,5.69,0,.94-.14,2.38-.07,2.81l.07,2.3c.07.65-.22,2.23,0,4.03.14,1.37-.22,5.69-.14,6.7,0,1.8-.86,3.74-1.3,5.54-.5.94-.86,1.8-1.8,2.81-.36.43-.86,1.3-1.37,1.8-.5.65-2.02,1.58-2.52,2.3-.43.58-1.94,1.01-2.45,1.08l-2.52.86c-.86.5-1.66.86-3.02.94-.22,0-.43-.07-.58,0-.94,0-1.44.36-2.38.36h-.43c-1.37,0-1.22-.14-2.88,0-.07,0-.79.22-.79,0,0-1.8-.22-3.31-.22-4.75l.5-.43h2.45c1.37-.5,2.3-.36,3.74-.86,1.37-.86,2.3-1.8,3.67-2.3.94-.86,1.87-1.8,2.38-2.74.86-.86.86-1.87,1.37-2.81,0-.86.43-1.8.43-2.74v-1.87c0-.43-.43,0-.43,0-1.37.86-3.31.86-5.11.86h-.5c-.65-.07-1.3-.22-1.94-.43-1.22-.29-1.94-.5-3.02-1.08-.29-.14-.79-.29-2.09-1.08l-.86-1.01-1.58-1.73c-.29-.5-.5-1.22-.86-2.3-.22-.58-.58-1.22-.72-2.02v-6.05c0-.5.36-1.51.36-1.87,0,0,.14-.43.14-.94,0-.14.5-1.73.58-1.8Zm11.88,9.22c.22-.36.07-.94.22-1.08.5-.72.22-.72.22-1.22s-.43-1.37-.86-1.8q-.43-.5-1.44,0c-.43.43-.5,1.08-.5,2.09,0,.22-.14,1.01.07,1.58,0,.22.65.94.94.94.5,0,.94,0,1.37-.5Z"/><path class="cls-14" d="m1266.04,559.51c.07-.86.07-1.73.07-2.66l-.22-5.83v-3.24c1.01,0,2.16-.07,3.6.07,0,0,1.08.07,1.58.07.65.14.43.07.72.22,0,.43-.14.58-.14,1.08v2.3c.36-.5.36-.72.86-1.22l.43-.14c1.22-1.22,3.24-1.51,5.04-1.37.36,0,1.37.36,2.23.86.79.14,1.08.5,1.08.5.94.86,1.94,1.37,2.3,2.3.94,1.37,1.44,2.88,1.94,4.68,0,.5,0,.94-.5.94-1.44.5-2.38.29-4.39.43h-.79c-.14-.07-.22-.36-.22-.43-.07-.58-.29-1.01-.29-1.3,0-.5-.43-1.08-.43-1.08-.94-.94-1.73-1.37-2.67-1.37-.22,0-.58,0-.86.14-.43.14-1.66.72-1.94,1.01-.5.5-1.08,1.01-1.37,1.66-.07.36-.14,1.58-.14,1.8-.14.86-.43,2.59-.43,3.6,0,.65-.22,1.87-.22,2.74,0,.65-.07,1.22-.07,1.8v2.74c0,.58-.07,1.3-.07,1.94v1.58c-2.38.5-4.03.5-4.97,0-.22-.65-.29-1.94-.22-2.16.22-1.73,0-3.46,0-5.26-.07-.94.07-2.09.07-2.95,0-.65.07-2.23,0-3.46Z"/><path class="cls-14" d="m1315.72,573.91l-.5.07c-.5.07-.43,0-1.15,0-.22.07-2.09.5-2.95.07-.5,0-.5-.14-1.01-.14-.43-.36-.43-1.3-.43-1.8v-1.8l-.58.79-1.3,1.22c-.94.65-1.44,1.08-2.3,1.51-1.44.86-3.24,1.08-4.68,1.08s-3.17-.79-4.39-1.22c-.36-.07-.72-.36-1.01-.58-.58-.5-1.37-1.01-1.87-1.44-.29-.22-.5-.5-.86-.65-.29-.14-.5-.43-.65-.72-.5-1.01-1.37-1.94-1.8-3.31-.29-1.01-.94-2.02-.94-2.88,0-.43-.14-2.02-.14-2.45,0-.86.07-1.15.07-2.09,0-.43.14-.94.36-1.8.14-1.01.22-2.45.43-3.17.65-1.22.79-1.22,1.01-1.94.22-.58.5-1.73,1.15-2.16.5-.36,2.59-2.3,2.88-2.38l1.3-.58c.79-.29,1.8-.43,2.67-.43l2.23-.07c.5,0,1.22,0,1.44.07.43,0,.94.43,1.44.43.43,0,1.3.43,1.8.86.94.36,1.44,1.01,1.87,1.44.43.5.94.86,1.37,1.37.07.29.5.5.5.5.14-.22.14-.86.43-1.37.07-1.37.14-2.59.22-2.95-.07-.36.07-1.37.58-1.22.43-.14,3.02.43,4.32.43.07,0,.07.65,0,.94l.43,6.91v7.78c0,.29-.07.58-.07.86.07.86.07,1.8.07,2.74.07.65,0,1.37,0,2.16,0,1.22.14,4.25.07,5.54v.36Zm-9.29-11.09c0-.58.58-2.66-.5-5.54-.29-.72-.79-1.8-2.02-2.23-.65-.14-1.22-.5-1.87-.43-.65.22-1.87.94-2.52,1.87-.43.5-.5,1.01-.58,1.8-.29,1.22-.43,1.73-.43,2.74,0,1.87,1.58,3.53,1.87,3.96.29.29.43.14.94.65.94.43,1.8,0,2.81-.5h.43c.86-.43,1.37-.86,1.87-1.8.07-.07,0-.5,0-.5Z"/><path class="cls-14" d="m1336.31,573.69c0,.58,0,1.94-.07,2.52.07.36-.36.79-.5.94h-1.87c-.5,0-1.15-.07-1.66-.07-.72.29-3.1.07-3.38.07q-.43-.5-.43-.94v-6.91l-.14-4.25.14-4.83-.07-4.18-.29-3.46c-1.15,0-3.1.22-3.96,0-1.66-.29-2.3,0-3.6,0v-4.61h.43c.43,0,.86-.07,1.01,0,.5.36,1.73.07,1.66-.07,1.08-.07.94-.07,1.8-.07.79,0,2.66.07,3.17,0,.07,0,0-2.66,0-3.67.22-1.8.22-3.17.29-5.04.07-1.3.07-2.52.07-3.89s.22-3.6.14-5.11c0-.5-.22-.5-.22-.94s0-.72.5-.72c.86,0,1.87.14,2.74.14,1.44,0,2.74,0,3.46.07.65.07,1.15.14,1.66.29.07,0,0,1.94-.07,3.02-.07,2.38-.07,3.89,0,6.26,0,1.08-.07,2.23,0,3.31,0,.58-.29,4.39-.36,4.97,0,.5.29.94.43.94.5,0,1.37.22,1.87.22.43,0,.94.22,1.87.22.86,0,1.8.07,2.81.07.43,0,.86.07.86.07.43,1.44.43,3.6,0,4.54h-.43c-1.87.22-3.74.36-5.62.36-.43,0-1.22.07-1.73.07,0,.43-.07.94-.07.94v.65c0,.86.07,1.51,0,2.3l.14,3.82-.29,3.24c.07,1.01-.22,5.4-.29,6.41,0,1.08-.07,2.23,0,3.31Z"/><path class="cls-14" d="m1365.76,565.27c0-.86-.5-1.8-1.44-2.3-2.3-.86-4.61-1.8-7.42-2.3-1.37-.5-2.74-.94-4.68-1.44-1.8-.86-3.1-2.38-3.6-4.61,0-1.8-.22-3.53.65-5.33,1.08-2.66,1.66-2.16,2.81-3.17,2.16-.86,3.46-1.15,5.76-1.66.94-.5,1.87-.5,2.74-.5h3.89c1.44,0,2.66-.07,3.96,0,2.09.07,3.74.43,6.12.86,1.01.14,1.8.29,2.38.5-.14.43-.36,1.66-.43,2.74,0,.14-.07.36-.07.5s-.07.36-.22.43-.43-.07-.72-.14c-1.66-.14-3.38-.14-5.11-.07-1.73.07-3.53.43-5.11.65-.72.22-1.44.36-2.09.5-.72.14-1.37.5-2.09.94-.43.5-.79,1.01-1.01,1.58-.22.5-.36,1.08-.36,1.73-.14.5,0,1.73.58,2.38s1.08,1.08,1.73,1.3c1.8.5,3.53.86,4.9,1.22.43,0,1.15.29,1.58.29,1.94.14,3.31.65,5.11,1.3,1.37.5,2.81.94,4.1,1.8,1.01,1.44,1.44,2.3,1.94,3.74v1.87c0,.94-.5,1.87-.94,2.38-.5,1.3-1.37,2.3-2.81,3.24-1.8,1.37-3.74,2.3-6.05,2.66-3.24,1.01-6.48,1.15-10.15.65l-3.96-.36c-.86-.07-2.09-.29-3.24-.65-1.66-.5-2.3-.43-2.38-.58-.07-.14-.22-.36-.22-.43-.43-1.08-.36-1.8-.86-3.17-.22-.5-.29-.86-.36-1.22,0,0-.07-.36,0-.65.5,0,.79.14,1.22.14,1.15.29,2.88.65,3.74.65s1.87.07,3.24.07c1.15.07,2.45.22,3.67-.29.65-.5,2.95-1.15,3.74-2.02.94-.86,1.44-1.8,1.44-3.24Z"/><path class="cls-14" d="m1388.36,573.19c1.22.22,2.52-.22,3.74.58.36.22.07.58.07.86-.07,1.37,0,2.66-.07,4.03-.07,1.01.36,2.67.22,3.02-.07.14-.36.07-.5.07-1.58-.14-3.17.07-4.68.22-.43.07-.79,0-1.22-.14-.29-.07-.29-.94-.29-1.37,0-2.09-.14-4.1-.22-6.19,0-.22,0-.43.07-.65.07-.22,1.94-.58,2.88-.43Z"/><path class="cls-3" d="m1123.71,104.3c-1.57,2.24-2.99,4.59-4.37,6.96-2.75,4.8-5.01,9.28-6.51,14.53-.92,2.91-2.14,6.83-3.01,9.58-.35,1.07-.66,1.99-1.06,2.79,3.91-1.72,8.93.17,12.79,1.16,2.05.52,4.05,1.28,5.96,2.2-1.25-2.83-1.97-5.97-2.15-9.08-.11-3.26.13-6.54.39-9.77.47-4.33.93-8.89,2.29-13.08,1.6-4.81,4.07-9.42,7.75-13.03,1.04-1.02,2.23-2.02,3.3-2.94.7-.6,1.32-1.11,1.73-1.5.7-.66.77-1.01.1-1-2.79.26-6.28,2.38-8.61,4.32-3.13,2.65-6.27,5.5-8.6,8.85Z"/><path class="cls-3" d="m1232.34,232.8c-2.69.5-5.41.82-8.15,1.08-5.51.51-10.52.71-15.92-.11-3.03-.37-7.1-.89-9.97-1.24-1.12-.12-2.08-.23-2.98-.2,3.19-2.85,3.55-8.2,4.26-12.12.38-2.08.52-4.22.48-6.33,2.06,2.31,4.61,4.27,7.36,5.73,2.92,1.45,6,2.59,9.05,3.7,4.13,1.38,8.47,2.85,12.85,3.35,5.04.54,10.26.21,15.07-1.63,1.36-.53,2.76-1.19,4.04-1.78.84-.39,1.55-.74,2.08-.95.89-.36,1.24-.29.95.33-1.4,2.43-4.77,4.72-7.51,6.03-3.71,1.75-7.61,3.42-11.63,4.14Z"/><ellipse class="cls-9" cx="928.5" cy="69.5" rx="52" ry="11"/><path class="cls-2" d="m928.5,59c33.16,0,51.5,6.21,51.5,10.5s-18.34,10.5-51.5,10.5-51.5-6.21-51.5-10.5,18.34-10.5,51.5-10.5m0-1c-28.99,0-52.5,5.15-52.5,11.5s23.51,11.5,52.5,11.5,52.5-5.15,52.5-11.5-23.51-11.5-52.5-11.5h0Z"/><path class="cls-11" d="m928,72.5c-15.88,0-25.59-1.46-26.47-2.5.88-1.04,10.6-2.5,26.47-2.5s25.59,1.46,26.47,2.5c-.88,1.04-10.6,2.5-26.47,2.5Z"/><path class="cls-2" d="m928,68c13.56,0,22.67,1.07,25.38,2-2.71.93-11.82,2-25.38,2s-22.67-1.07-25.38-2c2.71-.93,11.82-2,25.38-2m0-1c-14.91,0-27,1.34-27,3s12.09,3,27,3,27-1.34,27-3-12.09-3-27-3h0Z"/></svg>