<?xml version="1.0" encoding="UTF-8"?><svg id="Layer_1" xmlns="http://www.w3.org/2000/svg" width="1600" height="900" viewBox="0 0 1600 900"><defs><style>.cls-1{fill:#fffac0;}</style></defs><path class="cls-1" d="m628.4,59.9h331.2c208.5,0,377.6,169.1,377.6,377.6h0c0,208.5-169.1,377.6-377.6,377.6h-331.2c-208.5,0-377.6-169.1-377.6-377.6h0c0-208.5,169-377.6,377.6-377.6Z"/><path d="m498.1,242.8c.3.9.5,1.9.5,3,0,1.8-.4,3.2-1.2,4.1s-2,1.4-3.5,1.4h-13.8v50c-.5.1-1.4.3-2.5.5s-2.3.3-3.5.3c-2.5,0-4.3-.5-5.4-1.4s-1.6-2.5-1.6-4.7v-44.7h-16.8c-.3-.6-.6-1.3-1-2.2-.3-.9-.5-1.8-.5-2.9,0-1.9.4-3.2,1.2-4.1s2-1.4,3.5-1.4h43.6c.4.5.7,1.2,1,2.1h0Z"/><path d="m506.1,239.9c0-1.9.7-3.6,2-5,1.4-1.4,3.1-2,5.3-2s3.9.7,5.2,2c1.3,1.4,2,3,2,5s-.7,3.7-2,5c-1.3,1.4-3.1,2-5.2,2s-3.9-.7-5.3-2-2-3-2-5Zm1,14.5c.5-.1,1.3-.3,2.4-.5s2.1-.3,3.4-.3c2.4,0,4.2.4,5.2,1.3s1.7,2.4,1.7,4.6v41.8c-.5.1-1.3.3-2.3.5s-2.2.3-3.4.3c-2.4,0-4.1-.4-5.2-1.3s-1.6-2.4-1.6-4.6l-.2-41.8h0Z"/><path d="m543.8,301.8c-1,.2-2.2.3-3.3.3-2.4,0-4.2-.4-5.2-1.3s-1.7-2.4-1.7-4.6v-59.8c.5-.2,1.3-.4,2.3-.5,1-.2,2.2-.2,3.3-.2,2.4,0,4.2.4,5.2,1.3s1.7,2.4,1.7,4.6v59.8c-.5,0-1.3.2-2.3.4Z"/><path d="m570.5,301.8c-1,.2-2.2.3-3.3.3-2.4,0-4.2-.4-5.2-1.3s-1.7-2.4-1.7-4.6v-59.8c.5-.2,1.3-.4,2.3-.5,1-.2,2.2-.2,3.3-.2,2.4,0,4.2.4,5.2,1.3s1.7,2.4,1.7,4.6v59.8c-.5,0-1.3.2-2.3.4Z"/><path d="m594.7,290c-1.6-3.3-3.5-7.8-5.7-13.5s-4.4-12.5-6.6-20.6c.7-.8,1.6-1.5,2.8-2,1.2-.6,2.5-.9,3.9-.9,1.7,0,3.2.4,4.2,1.2,1.1.8,2,2.2,2.7,4.3,3.1,10.1,6.7,20.3,10.7,30.6h.4c.9-2.2,1.8-4.7,2.8-7.5s1.9-5.7,2.8-8.8c.9-3.1,1.8-6.2,2.6-9.3.8-3.1,1.5-6.2,2.1-9.1.8-.4,1.7-.7,2.5-1,.9-.3,1.8-.4,2.8-.4,1.7,0,3.2.4,4.5,1.2s1.9,2.1,1.9,3.9c0,2-.4,4.8-1.3,8.5s-2,7.5-3.5,11.7c-1.4,4.2-3,8.4-4.8,12.6s-3.6,8-5.4,11.1c-3.5,6.1-6.6,10.7-9.4,13.8-2.8,3-5.6,4.5-8.3,4.5-2.1,0-3.8-.6-5.2-1.8-1.3-1.2-2.1-2.8-2.5-4.7,1.1-.9,2.2-2,3.4-3.2s2.4-2.5,3.6-4c1.2-1.4,2.3-2.8,3.4-4.3,1.1-1.5,2-2.9,2.8-4.3-.6-.2-1.2-.5-1.8-.8s-1.1-.8-1.7-1.3c-.6-.6-1.2-1.4-1.8-2.3s-1.3-2.1-1.9-3.6h0Z"/><path d="m648.8,301.8c-1,.2-2.1.3-3.4.3-2.3,0-4.1-.4-5.2-1.3s-1.7-2.4-1.7-4.6v-59.8c.5-.2,1.3-.4,2.3-.5,1-.2,2.2-.2,3.4-.2,2.3,0,4.1.4,5.2,1.3s1.7,2.4,1.7,4.6v31l19.4-19.3c2.5,0,4.6.6,6.1,1.7,1.5,1.1,2.3,2.6,2.3,4.3,0,1.5-.5,2.9-1.5,4s-2.5,2.6-4.5,4.3l-10.8,9.4,19.1,17.9c-.3,2.3-1,4.1-2.1,5.5-1.1,1.3-2.8,2-4.9,2-1.5,0-2.9-.4-4-1.1-1.2-.7-2.6-2-4.2-3.9l-14.8-16.4v20.5c-.6-.1-1.4.1-2.4.3h0Z"/><path d="m701,301.8c-1,.2-2.1.3-3.4.3-2.3,0-4.1-.4-5.2-1.3s-1.7-2.4-1.7-4.6v-59.8c.5-.2,1.3-.4,2.3-.5,1-.2,2.2-.2,3.5-.2,2.3,0,4.1.4,5.2,1.3s1.7,2.4,1.7,4.6v31l19.4-19.3c2.5,0,4.6.6,6.1,1.7,1.5,1.1,2.3,2.6,2.3,4.3,0,1.5-.5,2.9-1.4,4s-2.5,2.6-4.6,4.3l-10.8,9.4,19.1,17.9c-.3,2.3-1,4.1-2.1,5.5-1.1,1.3-2.8,2-4.9,2-1.5,0-2.9-.4-4.1-1.1-1.2-.7-2.6-2-4.2-3.9l-14.8-16.4v20.5c-.6-.1-1.4.1-2.4.3h0Z"/><path d="m751.4,283.4c.9,3.4,2.7,5.9,5.2,7.4s5.7,2.3,9.4,2.3c2.8,0,5.4-.4,7.8-1.2,2.4-.8,4.3-1.7,5.8-2.7.9.5,1.7,1.3,2.3,2.2s.9,1.9.9,3c0,1.3-.5,2.5-1.3,3.5-.9,1-2.1,1.9-3.7,2.7-1.6.7-3.4,1.3-5.5,1.7-2.1.4-4.4.6-6.9.6-3.9,0-7.5-.5-10.8-1.6s-6-2.7-8.3-4.9c-2.3-2.2-4.1-4.8-5.4-8-1.3-3.2-1.9-6.9-1.9-11.2s.6-7.7,1.9-10.8,3-5.6,5.2-7.7,4.7-3.6,7.5-4.6,5.9-1.5,9.1-1.5,6.3.5,9,1.5,5.1,2.5,7,4.3,3.5,4,4.6,6.6,1.7,5.4,1.7,8.4c0,1.9-.5,3.3-1.5,4.2-1,.9-2.3,1.5-4,1.8l-28.1,4h0Zm11.1-21.3c-3.3,0-6,1.1-8.2,3.2-2.2,2.2-3.4,5.2-3.7,9.2l22.2-3.3c-.3-2.5-1.2-4.6-2.9-6.5-1.7-1.7-4.2-2.6-7.4-2.6h0Z"/><path d="m794.1,295.3c0-2.2.7-4,2.1-5.5,1.4-1.4,3.3-2.2,5.6-2.2s4.2.7,5.6,2.2c1.4,1.4,2.1,3.2,2.1,5.5s-.7,4-2.1,5.5c-1.4,1.4-3.3,2.1-5.6,2.1s-4.2-.7-5.6-2.1-2.1-3.3-2.1-5.5Zm14.3-50.9c0,1.8,0,4.2-.1,7.1-.1,3-.2,6.1-.3,9.5s-.3,6.8-.5,10.2c-.2,3.4-.5,6.5-.8,9.1-.5.4-1.3.7-2.2,1-1,.2-1.8.4-2.7.4-1.4,0-2.6-.2-3.6-.8s-1.5-1.4-1.8-2.8c-.2-1.7-.4-4.2-.6-7.4-.2-3.2-.4-6.6-.5-10.2s-.2-7.3-.3-10.9c-.1-3.6-.1-6.8-.1-9.5,2.1-1.3,4.5-1.9,7.1-1.9,2,0,3.6.5,4.7,1.5s1.7,2.7,1.7,4.7h0Z"/><path d="m508.3,390.7c0,5.4-.8,10.1-2.4,14.2-1.6,4-3.8,7.4-6.6,10s-6.3,4.6-10.4,6-8.5,2-13.5,2h-3.7c-1.3,0-2.7-.1-4.1-.3s-2.9-.4-4.3-.7-2.8-.6-4-1.1c-3.2-1.2-4.8-3.2-4.8-6v-49c0-1.2.3-2.1,1-2.8s1.6-1.2,2.8-1.6c2.5-.9,5.1-1.4,8-1.7s5.6-.3,8.2-.3c5,0,9.6.6,13.8,2,4.2,1.3,7.7,3.2,10.6,5.8,2.9,2.6,5.2,5.9,6.9,9.8s2.5,8.4,2.5,13.7h0Zm-13.3.1c0-3.6-.5-6.7-1.5-9.4s-2.4-4.8-4.1-6.5-3.9-3-6.3-3.8-5.1-1.2-8-1.2c-1.5,0-2.9,0-4.1.2-1.2.1-2.4.2-3.5.3v41.1c1.1.3,2.4.4,3.9.5,1.4.1,2.9.2,4.2.2,6.2,0,11-1.8,14.4-5.4,3.3-3.6,5-9,5-16h0Z"/><path d="m518.5,359.9c0-1.9.7-3.6,2-5,1.4-1.4,3.1-2,5.2-2s3.9.7,5.2,2c1.3,1.4,2,3,2,5s-.7,3.7-2,5c-1.3,1.4-3.1,2-5.2,2s-3.9-.7-5.2-2-2-3-2-5Zm1,14.5c.5-.1,1.3-.3,2.3-.5s2.2-.3,3.3-.3c2.4,0,4.2.4,5.2,1.3s1.7,2.4,1.7,4.6v41.8c-.5.1-1.3.3-2.3.5s-2.2.3-3.3.3c-2.4,0-4.2-.4-5.2-1.3s-1.7-2.4-1.7-4.6v-41.8h0Z"/><path d="m574.1,384.6c-1.6-1.3-3.8-2-6.7-2-1.9,0-3.7.2-5.3.7s-3.1,1.1-4.2,1.8v36.2c-.6.1-1.4.3-2.4.5s-2.1.3-3.4.3c-2.3,0-4.1-.4-5.2-1.3s-1.7-2.4-1.7-4.6v-32.1c0-1.6.3-2.9,1-3.9s1.7-2,3.1-2.9c1.9-1.3,4.5-2.5,7.7-3.4s6.7-1.3,10.6-1.3c6.9,0,12.2,1.5,16,4.5s5.7,7.5,5.7,13.3v30.8c-.5.1-1.3.3-2.3.5s-2.2.3-3.3.3c-2.4,0-4.2-.4-5.2-1.3s-1.7-2.4-1.7-4.6v-25.3c-.2-2.8-1.1-4.9-2.7-6.2h0Z"/><path d="m632.4,421.8c-1,.2-2.1.3-3.4.3-2.3,0-4.1-.4-5.2-1.3s-1.7-2.4-1.7-4.6v-59.8c.5-.2,1.3-.4,2.3-.5s2.2-.2,3.4-.2c2.3,0,4.1.4,5.2,1.3s1.7,2.4,1.7,4.6v31l19.4-19.3c2.5,0,4.6.6,6.1,1.7s2.3,2.6,2.3,4.3c0,1.5-.5,2.9-1.5,4s-2.5,2.6-4.5,4.3l-10.8,9.4,19.1,17.9c-.3,2.3-1,4.2-2.1,5.5s-2.8,2-4.9,2c-1.5,0-2.9-.4-4-1.1-1.2-.7-2.6-2-4.2-3.9l-14.8-16.4v20.5c-.6-.1-1.5.1-2.4.3h0Z"/><path d="m716.4,415.9c-.5,1-1.5,2-2.9,2.8-1.9,1.2-4.4,2.2-7.3,3s-6.3,1.2-10.2,1.2c-3.5,0-6.6-.4-9.4-1.2s-5.2-2-7.2-3.5-3.5-3.6-4.6-6.1-1.6-5.4-1.6-8.8v-29.1c.5-.2,1.3-.4,2.3-.5,1-.2,2.2-.2,3.5-.2,2.3,0,4.1.4,5.2,1.2,1.1.8,1.7,2.4,1.7,4.6v23.8c0,3.5.9,6,2.7,7.5s4.3,2.2,7.5,2.2c2.1,0,3.8-.2,5.2-.6s2.5-.8,3.2-1.3v-36.7c.5-.2,1.3-.4,2.3-.5,1-.2,2.2-.2,3.3-.2,2.4,0,4.2.4,5.2,1.2,1.1.8,1.7,2.4,1.7,4.7v32.8c.2,1.4-.1,2.7-.6,3.7h0Z"/><path d="m742.5,421.3c-.6.1-1.4.3-2.4.5s-2.1.3-3.4.3c-2.3,0-4.1-.4-5.2-1.3s-1.7-2.4-1.7-4.6v-31.7c0-1.7.4-3.2,1.2-4.4.8-1.2,2-2.3,3.5-3.2,2.1-1.3,4.6-2.3,7.7-3.1,3-.8,6.3-1.2,9.8-1.2,6.3,0,9.5,2,9.5,5.9,0,.9-.2,1.8-.5,2.6-.3.8-.6,1.5-.9,2-1.5-.3-3.4-.5-5.7-.5s-4.5.3-6.6.8-3.8,1.2-5.3,2v35.9h0Z"/><path d="m807.8,373c1.7,0,3.2.4,4.3,1.2,1.2.8,1.8,2.1,1.8,4,0,.9-.2,2.3-.8,4.2s-1.2,4.2-2,6.7-1.8,5.3-2.8,8.2c-1.1,2.9-2.2,5.8-3.3,8.7-1.1,2.8-2.3,5.5-3.4,8s-2.2,4.7-3.1,6.4c-.7.5-1.7,1-3,1.3s-2.8.5-4.4.5c-1.9,0-3.6-.2-4.9-.8s-2.3-1.3-3-2.5c-.6-1.1-1.3-2.7-2.2-4.7s-1.8-4.3-2.8-6.8-2-5.2-3.1-8-2.1-5.6-3-8.5c-1-2.8-1.9-5.5-2.7-8.1s-1.5-4.9-2-7c.7-.8,1.6-1.5,2.8-2,1.2-.6,2.5-.9,3.8-.9,1.7,0,3.2.4,4.2,1.2s1.9,2.2,2.5,4.3l5,16.5c.4,1.3.8,2.8,1.3,4.2s1,3,1.5,4.4.9,2.8,1.3,4.1c.4,1.3.8,2.4,1,3.2h.4c1.9-5.9,3.8-11.9,5.7-18.1s3.5-12.4,4.9-18.5c.8-.5,1.7-.8,2.8-1,1.1-.1,2.2-.2,3.2-.2h0Z"/><path d="m853.5,403.4c.9,3.4,2.7,5.9,5.2,7.4s5.7,2.3,9.4,2.3c2.8,0,5.4-.4,7.8-1.2,2.4-.8,4.3-1.7,5.8-2.6.9.5,1.7,1.3,2.3,2.2.6.9.9,1.9.9,3,0,1.3-.4,2.5-1.3,3.5-.9,1-2.1,1.9-3.7,2.7-1.6.7-3.4,1.3-5.6,1.7s-4.4.6-6.9.6c-3.9,0-7.5-.5-10.8-1.6-3.2-1.1-6-2.7-8.3-4.8-2.3-2.2-4.1-4.8-5.4-8s-2-6.9-2-11.2.6-7.7,1.9-10.8,3-5.6,5.2-7.7,4.7-3.6,7.6-4.6,5.9-1.5,9.1-1.5,6.3.5,9,1.5,5.1,2.5,7,4.3,3.4,4,4.5,6.6,1.7,5.4,1.7,8.4c0,1.9-.5,3.3-1.4,4.2-1,.9-2.3,1.5-4.1,1.8l-27.9,3.8h0Zm11.1-21.3c-3.3,0-6,1.1-8.2,3.2-2.2,2.2-3.4,5.2-3.7,9.2l22.2-3.3c-.3-2.5-1.2-4.6-2.9-6.5-1.7-1.7-4.2-2.6-7.4-2.6h0Z"/><path d="m909.3,421.3c-.6.1-1.4.3-2.4.5s-2.1.3-3.4.3c-2.3,0-4.1-.4-5.2-1.3s-1.7-2.4-1.7-4.6v-31.7c0-1.7.4-3.2,1.2-4.4.8-1.2,2-2.3,3.5-3.2,2.1-1.3,4.6-2.3,7.7-3.1,3-.8,6.3-1.2,9.8-1.2,6.3,0,9.5,2,9.5,5.9,0,.9-.2,1.8-.4,2.6-.3.8-.6,1.5-1,2-1.5-.3-3.4-.5-5.7-.5s-4.5.3-6.6.8-3.8,1.2-5.3,2v35.9h0Z"/><path d="m968.6,377.2h18.1c.3.5.6,1.2.9,2,.3.8.4,1.8.4,2.8,0,1.7-.4,3-1.2,3.8s-1.9,1.2-3.2,1.2h-14.4v34.3c-.6.1-1.4.3-2.4.5s-2.1.3-3.4.3c-2.3,0-4.1-.4-5.2-1.3s-1.7-2.4-1.7-4.6v-44.2c0-3.2.5-5.9,1.5-8.2,1-2.3,2.4-4.1,4.2-5.6s3.9-2.5,6.4-3.2,5.2-1,8.1-1c8.9,0,13.3,2.3,13.3,7,0,1.1-.2,2-.7,2.8-.4.8-.9,1.5-1.5,2-1.3-.5-2.7-1-4.2-1.3-1.6-.3-3.2-.5-5-.5-3.5,0-6,.7-7.6,2s-2.4,3.5-2.4,6.5v4.7h0Z"/><path d="m1039.5,415.9c-.5,1-1.5,2-2.9,2.8-1.9,1.2-4.4,2.2-7.3,3s-6.3,1.2-10.2,1.2c-3.5,0-6.6-.4-9.4-1.2s-5.2-2-7.2-3.5-3.5-3.6-4.6-6.1-1.6-5.4-1.6-8.8v-29.1c.5-.2,1.3-.4,2.3-.5,1-.2,2.2-.2,3.4-.2,2.3,0,4.1.4,5.2,1.2,1.1.8,1.7,2.4,1.7,4.6v23.8c0,3.5.9,6,2.7,7.5s4.3,2.2,7.6,2.2c2.1,0,3.8-.2,5.2-.6,1.4-.4,2.5-.8,3.2-1.3v-36.7c.5-.2,1.3-.4,2.3-.5s2.2-.2,3.3-.2c2.4,0,4.2.4,5.2,1.2,1.1.8,1.7,2.4,1.7,4.7v32.8c.2,1.4-.1,2.7-.6,3.7h0Z"/><path d="m1063.8,421.8c-1,.2-2.2.3-3.3.3-2.4,0-4.2-.4-5.2-1.3s-1.7-2.4-1.7-4.6v-59.8c.5-.2,1.3-.4,2.3-.5s2.2-.2,3.3-.2c2.4,0,4.2.4,5.2,1.3s1.7,2.4,1.7,4.6v59.8c-.5,0-1.3.2-2.3.4h0Z"/><path d="m1123.4,412.2c0,1.5-.3,2.8-1,3.7s-1.7,1.8-3,2.7c-1.7,1.1-3.9,2-6.6,3s-5.9,1.3-9.5,1.3c-8,0-14.3-2-19.1-6.2s-7.1-10.4-7.1-18.8c0-4.4.6-8.2,1.9-11.4,1.3-3.2,3-5.8,5.2-7.8s4.7-3.6,7.7-4.6,6.1-1.5,9.5-1.5c1.8,0,3.5.2,5.1.5s3,.8,4.3,1.4v-18.1c.5-.2,1.3-.4,2.3-.5s2.2-.2,3.3-.2c2.4,0,4.2.4,5.2,1.3s1.7,2.4,1.7,4.6v50.6h.1Zm-12.6-27.5c-1-.6-2.2-1.1-3.5-1.5s-2.8-.6-4.3-.6c-3.7,0-6.8,1.2-9.3,3.6s-3.7,6.3-3.7,11.8c0,5.1,1.2,8.9,3.6,11.2s5.6,3.5,9.7,3.5c1.7,0,3.2-.2,4.4-.6,1.2-.4,2.3-.9,3.2-1.4v-26h-.1Z"/><path d="m1135.7,415.3c0-2.2.7-4,2.1-5.5,1.4-1.4,3.3-2.1,5.6-2.1s4.2.7,5.6,2.1,2.1,3.2,2.1,5.5-.7,4-2.1,5.5-3.3,2.2-5.6,2.2-4.2-.7-5.6-2.2c-1.4-1.5-2.1-3.3-2.1-5.5Zm14.3-50.9c0,1.8,0,4.2-.1,7.1-.1,3-.2,6.1-.3,9.5s-.3,6.8-.6,10.2c-.2,3.4-.5,6.5-.8,9.2-.5.4-1.3.7-2.2,1-1,.2-1.8.3-2.7.3-1.4,0-2.6-.2-3.6-.8-1-.5-1.6-1.4-1.8-2.8-.2-1.7-.4-4.2-.6-7.3-.2-3.2-.4-6.6-.5-10.2s-.2-7.3-.3-10.9c-.1-3.6-.1-6.8-.1-9.5,2.1-1.3,4.5-1.9,7.1-1.9,2,0,3.6.5,4.7,1.5s1.8,2.6,1.8,4.6h0Z"/></svg>