<?xml version="1.0" encoding="UTF-8"?><svg id="Layer_1" xmlns="http://www.w3.org/2000/svg" width="342" height="200" viewBox="0 0 342 200"><defs><style>.cls-1{fill:#f7931e;stroke:#ed1c24;stroke-miterlimit:10;}.cls-2,.cls-3{stroke-width:0px;}.cls-3{fill:#e6e6e6;}</style></defs><rect class="cls-3" x="52" y="48" width="183" height="105" rx="12" ry="12"/><path class="cls-2" d="m248,169H73c-3.3,0-6.3-1.35-8.47-3.52s-3.53-5.18-3.53-8.48v-89c0-6.6,5.4-12,12-12h175c6.6,0,12,5.4,12,12v89c0,6.6-5.4,12-12,12Z"/><path class="cls-1" d="m101.89,87.65c1.44-.08,5.52.48,6.8.4.96,0,3.04,0,3.92.4.4.16,2.4.4,2.72.48q.48,0,.88.4c0,1.04-.4,1.92-.4,2.8-.72,0-1.68.16-2.32.24-1.04.16-1.36.08-2.72.08-2.64,0-5.92.4-6.16.48-2.24.4-8.64,1.84-9.84,3.36-.96,1.36-2,1.92-2.4,3.36-.4.88-.08,4.4.48,5.52.8.96,1.36,2.16,1.68,2.32.72.4,1.92,1.2,3.12,1.68.24.08,1.52.24,2.96.64.8.24.8.32,1.52.48.48.16.56.32,1.12.48.64.16,1.68.4,1.76.4.88,0,1.84.4,2.64.4,1.52.4,2.72.4,4.08,1.36.72.16,1.68.56,2.24.88.64.32,4.08,2.24,4.48,3.36,1.04,1.68,1.44,3.44,1.44,5.28,0,.56-.24,1.6-.32,2.08l-.4,2.24c-.16.48-1.28,2.48-1.44,2.64-.24.4-2,2.08-2.16,2.24-1.44,1.2-6.72,4.96-8.8,4.96-.16.16-.56.08-.88.24-1.12,0-2.08.24-3.84.16-1.6-.08-2.96.16-4.64.08-1.76-.08-7.44.08-9.52-.48-.24-.08-2.56-.32-3.2-.4-.88-.08-2.96-.32-3.6-.56-.4-.16-1.04-.56-1.04-1.12-.4-.88-1.68-5.68-1.28-5.76,1.84.4,3.6.8,5.92,1.2,1.84,0,3.52.56,5.84.56.88,0,1.68-.16,3.2-.4.32-.08.72-.08.88-.16,1.6,0,4.08-1.44,5.28-1.92.24,0,2.16-1.6,2.4-2l1.52-2.32c.16-.48.64-1.28.88-1.84.32-.88.32-1.76,0-3.04-.64-.56-.88-1.2-1.52-1.92-.48-.8-1.28-1.28-2.16-1.68-1.44-.48-2.8-1.12-3.68-1.12-1.44-.4-2.32-.4-3.12-.8-1.36-.4-2.32-.4-3.2-.88-1.36,0-2.16-.48-3.68-.88-.56-.32-1.28-.64-1.6-.88-1.52-1.12-2.48-1.6-3.6-3.12-1.04-1.44-1.28-1.44-1.92-2.72-.48-1.04-.72-3.92-.72-4.56,0-1.36.16-2.08.24-3.04.08-.88.64-1.92,1.12-2.56,1.2-2.08,2.64-2.64,4.56-4,.88-.72,3.92-1.92,5.12-2.24.88,0,1.36-.4,2.32-.4.88,0,1.2-.16,2-.16.48,0,1.04.16,2.08-.24s3.68,0,4.96,0Z"/><path class="cls-1" d="m140.69,135.81c0,.64,0,2.16-.08,2.8.08.4-.4.88-.56,1.04h-2.08c-.56,0-1.28-.08-1.84-.08-.8.32-3.44.08-3.76.08q-.48-.56-.48-1.04v-7.68l-.16-4.72.16-5.36-.08-4.64-.32-3.84c-1.28,0-3.44.24-4.4,0-1.84-.32-2.56,0-4,0v-5.12h.48c.48,0,.96-.08,1.12,0,.56.4,1.92.08,1.84-.08,1.2-.08,1.04-.08,2-.08.88,0,2.96.08,3.52,0,.08,0,0-2.96,0-4.08.24-2,.24-3.52.32-5.6.08-1.44.08-2.8.08-4.32s.24-4,.16-5.68c0-.56-.24-.56-.24-1.04s0-.8.56-.8c.96,0,2.08.16,3.04.16,1.6,0,3.04,0,3.84.08.72.08,1.28.16,1.84.32.08,0,0,2.16-.08,3.36-.08,2.64-.08,4.32,0,6.96,0,1.2-.08,2.48,0,3.68,0,.64-.32,4.88-.4,5.52,0,.56.32,1.04.48,1.04.56,0,1.52.24,2.08.24.48,0,1.04.24,2.08.24.96,0,2,.08,3.12.08.48,0,.96.08.96.08.48,1.6.48,4,0,5.04h-.48c-2.08.24-4.16.4-6.24.4-.48,0-1.36.08-1.92.08,0,.48-.08,1.04-.08,1.04v.72c0,.96.08,1.68,0,2.56l.16,4.24-.32,3.6c.08,1.12-.24,6-.32,7.12,0,1.2-.08,2.48,0,3.68Z"/><path class="cls-1" d="m183.81,136.05l-.56.08c-.56.08-.48,0-1.28,0-.24.08-2.32.56-3.28.08-.56,0-.56-.16-1.12-.16-.48-.4-.48-1.44-.48-2v-2l-.64.88-1.44,1.36c-1.04.72-1.6,1.2-2.56,1.68-1.6.96-3.6,1.2-5.2,1.2s-3.52-.88-4.88-1.36c-.4-.08-.8-.4-1.12-.64-.64-.56-1.52-1.12-2.08-1.6-.32-.24-.56-.56-.96-.72-.32-.16-.56-.48-.72-.8-.56-1.12-1.52-2.16-2-3.68-.32-1.12-1.04-2.24-1.04-3.2,0-.48-.16-2.24-.16-2.72,0-.96.08-1.28.08-2.32,0-.48.16-1.04.4-2,.16-1.12.24-2.72.48-3.52.72-1.36.88-1.36,1.12-2.16.24-.64.56-1.92,1.28-2.4.56-.4,2.88-2.56,3.2-2.64l1.44-.64c.88-.32,2-.48,2.96-.48l2.48-.08c.56,0,1.36,0,1.6.08.48,0,1.04.48,1.6.48.48,0,1.44.48,2,.96,1.04.4,1.6,1.12,2.08,1.6.48.56,1.04.96,1.52,1.52.08.32.56.56.56.56.16-.24.16-.96.48-1.52.08-1.52.16-2.88.24-3.28-.08-.4.08-1.52.64-1.36.48-.16,3.36.48,4.8.48.08,0,.08.72,0,1.04l.48,7.68v8.64c0,.32-.08.64-.08.96.08.96.08,2,.08,3.04.08.72,0,1.52,0,2.4,0,1.36.16,4.72.08,6.16v.4Zm-10.32-12.32c0-.64.64-2.96-.56-6.16-.32-.8-.88-2-2.24-2.48-.72-.16-1.36-.56-2.08-.48-.72.24-2.08,1.04-2.8,2.08-.48.56-.56,1.12-.64,2-.32,1.36-.48,1.92-.48,3.04,0,2.08,1.76,3.92,2.08,4.4.32.32.48.16,1.04.72,1.04.48,2,0,3.12-.56h.48c.96-.48,1.52-.96,2.08-2,.08-.08,0-.56,0-.56Z"/><path class="cls-1" d="m190.45,120.05c.08-.96.08-1.92.08-2.96l-.24-6.48v-3.6c1.12,0,2.4-.08,4,.08,0,0,1.2.08,1.76.08.72.16.48.08.8.24,0,.48-.16.64-.16,1.2v2.56c.4-.56.4-.8.96-1.36l.48-.16c1.36-1.36,3.6-1.68,5.6-1.52.4,0,1.52.4,2.48.96.88.16,1.2.56,1.2.56,1.04.96,2.16,1.52,2.56,2.56,1.04,1.52,1.6,3.2,2.16,5.2,0,.56,0,1.04-.56,1.04-1.6.56-2.64.32-4.88.48h-.88c-.16-.08-.24-.4-.24-.48-.08-.64-.32-1.12-.32-1.44,0-.56-.48-1.2-.48-1.2-1.04-1.04-1.92-1.52-2.96-1.52-.24,0-.64,0-.96.16-.48.16-1.84.8-2.16,1.12-.56.56-1.2,1.12-1.52,1.84-.08.4-.16,1.76-.16,2-.16.96-.48,2.88-.48,4,0,.72-.24,2.08-.24,3.04,0,.72-.08,1.36-.08,2v3.04c0,.64-.08,1.44-.08,2.16v1.76c-2.64.56-4.48.56-5.52,0-.24-.72-.32-2.16-.24-2.4.24-1.92,0-3.84,0-5.84-.08-1.04.08-2.32.08-3.28,0-.72.08-2.48,0-3.84Z"/><path class="cls-1" d="m232.93,135.81c0,.64,0,2.16-.08,2.8.08.4-.4.88-.56,1.04h-2.08c-.56,0-1.28-.08-1.84-.08-.8.32-3.44.08-3.76.08q-.48-.56-.48-1.04v-7.68l-.16-4.72.16-5.36-.08-4.64-.32-3.84c-1.28,0-3.44.24-4.4,0-1.84-.32-2.56,0-4,0v-5.12h.48c.48,0,.96-.08,1.12,0,.56.4,1.92.08,1.84-.08,1.2-.08,1.04-.08,2-.08.88,0,2.96.08,3.52,0,.08,0,0-2.96,0-4.08.24-2,.24-3.52.32-5.6.08-1.44.08-2.8.08-4.32s.24-4,.16-5.68c0-.56-.24-.56-.24-1.04s0-.8.56-.8c.96,0,2.08.16,3.04.16,1.6,0,3.04,0,3.84.08.72.08,1.28.16,1.84.32.08,0,0,2.16-.08,3.36-.08,2.64-.08,4.32,0,6.96,0,1.2-.08,2.48,0,3.68,0,.64-.32,4.88-.4,5.52,0,.56.32,1.04.48,1.04.56,0,1.52.24,2.08.24.48,0,1.04.24,2.08.24.96,0,2,.08,3.12.08.48,0,.96.08.96.08.48,1.6.48,4,0,5.04h-.48c-2.08.24-4.16.4-6.24.4-.48,0-1.36.08-1.92.08,0,.48-.08,1.04-.08,1.04v.72c0,.96.08,1.68,0,2.56l.16,4.24-.32,3.6c.08,1.12-.24,6-.32,7.12,0,1.2-.08,2.48,0,3.68Z"/></svg>